<svg width="180" height="180" viewBox="0 0 180 180" fill="none" xmlns="http://www.w3.org/2000/svg">
<path d="M135.42 133.655C158.855 109.29 158.855 70.715 135.42 46.35L144.495 37.275C153.74 46.085 166.25 51.5 180 51.5V47.5C167.355 47.5 155.845 42.53 147.325 34.445L161.77 20H167.335L180 7.23H172.77V0L160 12.665V18.23L145.555 32.675C137.47 24.155 132.5 12.645 132.5 0H128.5C128.5 13.75 133.915 26.26 142.73 35.505L133.655 44.58C109.29 21.145 70.715 21.145 46.35 44.58L37.275 35.505C46.085 26.26 51.5 13.75 51.5 0H47.5C47.5 12.645 42.53 24.155 34.445 32.675L20 18.23V12.665L7.23 0V7.23H0L12.665 20H18.23L32.675 34.445C24.155 42.53 12.645 47.5 0 47.5V51.5C13.75 51.5 26.26 46.085 35.505 37.27L44.58 46.345C21.145 70.71 21.145 109.285 44.58 133.65L35.505 142.725C26.26 133.915 13.75 128.5 0 128.5V132.5C12.645 132.5 24.155 137.47 32.675 145.555L18.23 160H12.665L0 172.77H7.23V180L20 167.335V161.77L34.445 147.325C42.53 155.845 47.5 167.355 47.5 180H51.5C51.5 166.25 46.085 153.74 37.27 144.495L46.345 135.42C70.71 158.855 109.285 158.855 133.65 135.42L142.725 144.495C133.915 153.74 128.5 166.25 128.5 180H132.5C132.5 167.355 137.47 155.845 145.555 147.325L160 161.77V167.335L172.77 180V172.77H180L167.335 160H161.77L147.325 145.555C155.845 137.47 167.355 132.5 180 132.5V128.5C166.25 128.5 153.74 133.915 144.495 142.73L135.42 133.655ZM130.825 47.41L127.29 50.945C106.44 31.02 73.56 31.02 52.71 50.945L49.175 47.41C71.98 25.535 108.02 25.535 130.825 47.41ZM94.625 94.565L100.375 98.625C99.8453 99.2597 99.2597 99.8453 98.625 100.375L94.565 94.625C92.035 97.12 87.965 97.12 85.435 94.625L81.375 100.375C80.7403 99.8453 80.1547 99.2597 79.625 98.625L85.375 94.565C82.88 92.035 82.88 87.965 85.375 85.435L79.625 81.37C80.155 80.735 80.74 80.15 81.375 79.62L85.44 85.37C87.97 82.87 92.04 82.87 94.57 85.37L98.63 79.62C99.265 80.15 99.85 80.735 100.38 81.37L94.63 85.43C97.125 87.965 97.125 92.035 94.625 94.565ZM98.62 79.61C93.635 75.465 86.365 75.465 81.38 79.61L76.77 75C84.315 68.335 95.68 68.335 103.225 75L98.62 79.61ZM79.61 81.38C75.465 86.365 75.465 93.635 79.61 98.62L75 103.23C68.335 95.685 68.335 84.32 75 76.775L79.61 81.38ZM81.38 100.385C86.365 104.53 93.635 104.53 98.62 100.385L103.23 104.995C95.685 111.66 84.32 111.66 76.775 104.995L81.38 100.385ZM100.385 98.62C104.53 93.635 104.53 86.365 100.385 81.38L104.995 76.77C111.66 84.315 111.66 95.68 104.995 103.225L100.385 98.62ZM71.815 70.045L67.22 65.45C80.055 53.525 99.95 53.525 112.785 65.45L108.19 70.045C97.895 60.655 82.105 60.655 71.815 70.045ZM70.045 71.815C60.655 82.105 60.655 97.895 70.045 108.185L65.45 112.78C53.525 99.945 53.525 80.05 65.45 67.215L70.045 71.815ZM71.815 109.955C82.105 119.345 97.895 119.345 108.185 109.955L112.78 114.55C99.945 126.475 80.05 126.475 67.215 114.55L71.815 109.955ZM109.955 108.185C119.345 97.895 119.345 82.105 109.955 71.815L114.55 67.22C126.475 80.055 126.475 99.95 114.55 112.785L109.955 108.185ZM62.27 60.5L57.675 55.905C75.785 38.715 104.22 38.715 122.33 55.905L117.735 60.5C102.16 45.85 77.84 45.85 62.27 60.5ZM60.5 62.27C45.845 77.84 45.845 102.16 60.5 117.735L55.905 122.33C38.715 104.22 38.715 75.785 55.905 57.675L60.5 62.27ZM62.27 119.5C77.84 134.155 102.16 134.155 117.735 119.5L122.33 124.095C104.215 141.285 75.785 141.285 57.675 124.095L62.27 119.5ZM119.5 117.73C134.155 102.16 134.155 77.84 119.5 62.265L124.095 57.67C141.285 75.78 141.285 104.215 124.095 122.325L119.5 117.73ZM47.41 49.175L50.945 52.71C31.02 73.56 31.02 106.44 50.945 127.285L47.41 130.82C25.535 108.02 25.535 71.98 47.41 49.175ZM49.175 132.59L52.71 129.055C73.56 148.98 106.44 148.98 127.29 129.055L130.825 132.59C108.02 154.465 71.98 154.465 49.175 132.59ZM132.59 130.825L129.055 127.29C148.98 106.44 148.98 73.56 129.055 52.71L132.59 49.175C154.465 71.98 154.465 108.02 132.59 130.825Z" fill="#FFD166"/>
</svg>
