<svg width="180" height="180" viewBox="0 0 180 180" fill="none" xmlns="http://www.w3.org/2000/svg">
<path d="M34.265 49.675L83.94 0L85.71 1.77L33.255 54.225C33.75 52.785 34.095 51.265 34.265 49.675ZM45.035 19.82L63.085 1.77L61.315 0L43.365 17.95C44.095 18.525 44.65 19.145 45.035 19.82ZM27.23 48.38C28.11 36.02 30 31.9 34.18 26.83C36.61 23.88 38.185 20.45 38.83 17.975C38.715 17.92 38.595 17.865 38.47 17.81C34.03 15.855 30.145 14.555 27.18 13.965C24.005 13.34 22.415 13.165 21.495 14.19C26.73 20.91 22.09 30.155 13.725 30.845C13.725 30.845 13.905 32.675 14.09 35.36L19.695 32.5C20.31 32.185 21.06 32.43 21.375 33.045C21.69 33.66 21.445 34.415 20.83 34.725L14.26 38.08C14.295 38.74 14.33 39.425 14.365 40.125L18.785 37.865C19.4 37.55 20.15 37.795 20.465 38.41C20.78 39.025 20.535 39.78 19.92 40.09L14.46 42.88C14.48 43.57 14.49 44.265 14.5 44.96L17.875 43.235C18.49 42.92 19.24 43.165 19.555 43.78C19.87 44.395 19.625 45.15 19.01 45.46L14.485 47.77C14.48 48.08 14.47 48.39 14.46 48.695C14.445 49.11 14.415 49.515 14.38 49.92L16.96 48.6C17.575 48.285 18.325 48.53 18.64 49.145C18.955 49.76 18.71 50.515 18.095 50.825L13.94 52.945C12.77 58.76 10.02 63.68 9.63 67.445C9.61 67.62 9.61 67.79 9.615 67.955C20.455 62.765 26.7 55.835 27.23 48.38ZM29.725 48.555C29.125 56.945 22.385 64.61 10.705 70.215C11.365 70.725 12.285 70.915 13.35 70.565C13.89 70.385 15.135 69.815 16.735 68.885L17.9 70.21L17.355 68.515C19.015 67.51 20.975 66.155 22.915 64.47L24.49 65.785L23.46 63.985C25.3 62.325 27.085 60.375 28.535 58.15L29.98 58.815L28.845 57.675C30.455 55.08 31.6 52.125 31.84 48.845C32.075 45.68 32.475 43.015 32.975 40.74C34.975 33.05 38.845 30.16 40.64 27.55C43.37 23.575 44.49 21.47 41.015 19.36C40.165 22.175 38.485 25.535 36.105 28.42C32.425 32.89 30.595 36.335 29.725 48.555ZM180 49.92L163.945 65.975C164.18 73.215 162.91 80.495 160.13 87.3L177.175 70.255L180.005 73.085L104.225 148.865C84.075 169.015 51.285 169.015 31.135 148.865C27.1638 144.9 23.867 140.313 21.375 135.285L2.825 153.835L0 151.005L19.64 131.365C17.855 126.845 16.73 122.125 16.265 117.35L1.765 131.85L0 130.08L16.055 114.025C15.82 106.785 17.09 99.5 19.87 92.7L2.825 109.745L0 106.91L75.775 31.135C95.925 10.985 128.715 10.985 148.865 31.135C152.945 35.215 156.195 39.81 158.625 44.715L177.175 26.165L180.005 28.995L160.365 48.635C162.15 53.155 163.275 57.875 163.74 62.65L178.24 48.15L180 49.92ZM20.08 110L84.99 45.09C98.755 31.325 121.145 31.325 134.91 45.09C138.982 49.1562 141.993 54.1615 143.675 59.665L155.62 47.72C153.267 42.6021 150.022 37.9444 146.035 33.965C127.445 15.375 97.195 15.375 78.605 33.965L33.97 78.6C25.26 87.31 20.63 98.575 20.08 110ZM127.755 75.58L141.65 61.685C140.184 56.0732 137.249 50.9539 133.145 46.855C120.355 34.065 99.55 34.065 86.76 46.855L46.86 86.755C39.555 94.06 36.43 103.985 37.47 113.535L93 58.005C100.995 50.01 114 50.01 121.995 58.005C126.775 62.785 128.695 69.36 127.755 75.58ZM119.165 84.17L119.17 84.165C125.595 77.73 125.595 67.265 119.165 60.835C112.73 54.4 102.26 54.4 95.825 60.835L60.83 95.83C54.395 102.265 54.395 112.735 60.83 119.17C67.265 125.605 77.735 125.605 84.17 119.17L119.165 84.17ZM38.35 118.31C39.8156 123.922 42.7515 129.041 46.855 133.14C59.645 145.93 80.45 145.93 93.24 133.14L133.14 93.24C140.445 85.935 143.57 76.01 142.53 66.46L87 121.995C79.005 129.99 66 129.99 58.005 121.995C53.225 117.215 51.305 110.64 52.245 104.42L38.35 118.31ZM22.75 128.255L35.255 115.75C34.16 109.115 34.955 102.23 37.65 95.965L20.055 113.56C20.1771 118.569 21.0866 123.528 22.75 128.255ZM159.92 70L95.01 134.91C81.245 148.675 58.85 148.675 45.09 134.91C41.0175 130.844 38.0075 125.839 36.325 120.335L24.38 132.28C26.7327 137.398 29.9784 142.056 33.965 146.035C52.555 164.625 82.805 164.625 101.395 146.035L146.035 101.4L146.045 101.39C154.745 92.685 159.37 81.42 159.92 70ZM159.95 66.435C159.82 61.455 158.93 56.49 157.25 51.745L144.745 64.25C145.84 70.885 145.045 77.77 142.35 84.035L159.95 66.435ZM146.745 125.775L94.29 178.23L96.06 180L145.735 130.325C145.905 128.735 146.25 127.215 146.745 125.775ZM134.965 160.18L116.915 178.23L118.685 180L136.635 162.05C135.905 161.475 135.35 160.855 134.965 160.18ZM152.77 131.62C151.89 143.98 150 148.1 145.82 153.17C143.39 156.12 141.815 159.55 141.17 162.025C141.285 162.08 141.405 162.135 141.53 162.19C145.97 164.145 149.855 165.445 152.82 166.035C155.995 166.66 157.585 166.835 158.505 165.81C153.27 159.09 157.91 149.845 166.275 149.155C166.275 149.155 166.095 147.325 165.91 144.64L160.305 147.5C159.69 147.815 158.94 147.57 158.625 146.955C158.55 146.809 158.505 146.65 158.492 146.486C158.478 146.322 158.498 146.158 158.548 146.002C158.599 145.846 158.68 145.701 158.787 145.576C158.893 145.452 159.024 145.349 159.17 145.275L165.74 141.92C165.705 141.26 165.67 140.575 165.635 139.875L161.215 142.135C160.6 142.45 159.85 142.205 159.535 141.59C159.46 141.444 159.415 141.285 159.402 141.121C159.388 140.957 159.408 140.793 159.458 140.637C159.509 140.481 159.59 140.336 159.697 140.211C159.803 140.087 159.934 139.984 160.08 139.91L165.54 137.12C165.52 136.43 165.51 135.735 165.5 135.04L162.125 136.765C161.51 137.08 160.76 136.835 160.445 136.22C160.37 136.074 160.325 135.915 160.312 135.751C160.298 135.587 160.318 135.423 160.368 135.267C160.419 135.111 160.5 134.966 160.607 134.841C160.713 134.717 160.844 134.614 160.99 134.54L165.515 132.23C165.52 131.92 165.53 131.61 165.54 131.305C165.555 130.89 165.585 130.485 165.62 130.08L163.04 131.4C162.425 131.715 161.675 131.47 161.36 130.855C161.285 130.709 161.24 130.55 161.227 130.386C161.213 130.222 161.233 130.058 161.283 129.902C161.334 129.746 161.415 129.601 161.522 129.476C161.628 129.352 161.759 129.249 161.905 129.175L166.06 127.055C167.23 121.24 169.98 116.32 170.37 112.555C170.39 112.38 170.39 112.21 170.385 112.045C159.545 117.235 153.3 124.165 152.77 131.62ZM150.275 131.445C150.875 123.055 157.615 115.39 169.295 109.785C168.635 109.275 167.715 109.085 166.65 109.435C166.11 109.615 164.865 110.185 163.265 111.115L162.1 109.79L162.645 111.485C160.681 112.674 158.821 114.028 157.085 115.53L155.51 114.215L156.54 116.015C154.7 117.675 152.915 119.625 151.465 121.85L150.02 121.185L151.155 122.325C149.545 124.92 148.4 127.875 148.16 131.155C147.925 134.32 147.525 136.985 147.025 139.26C145.025 146.95 141.155 149.84 139.36 152.45C136.63 156.425 135.51 158.53 138.985 160.64C139.835 157.825 141.515 154.465 143.895 151.58C147.575 147.11 149.405 143.665 150.275 131.445Z" fill="#FFD166"/>
</svg>
