<svg width="181" height="149" viewBox="0 0 181 149" fill="none" xmlns="http://www.w3.org/2000/svg">
<path d="M11.285 88.8348L9.44498 86.9948L12.79 79.3648L15.395 81.9698L11.285 88.8348ZM38.53 40.3848L16.77 18.6248L34.61 0.779785L56.37 22.5398L54.6 24.3098L50.6 20.3098L44.33 26.5798L48.33 30.5798L46.56 32.3498L42.56 28.3498L36.29 34.6198L40.29 38.6198L38.53 40.3848ZM42.61 12.3148L36.34 18.5848L42.57 24.8148L48.84 18.5448L42.61 12.3148ZM28.345 10.5898L34.575 16.8198L40.845 10.5498L34.615 4.32479L28.345 10.5898ZM26.535 24.8548L32.805 18.5848L26.575 12.3548L20.305 18.6248L26.535 24.8548ZM34.53 32.8498L40.8 26.5798L34.57 20.3498L28.3 26.6198L34.53 32.8498ZM19.665 100.75L8.39498 89.4798L6.62498 91.2498L17.895 102.52L19.665 100.75ZM2.87498 94.9998C-0.235019 98.1098 -0.235019 103.16 2.87498 106.27C5.98498 109.38 11.035 109.38 14.145 106.27L16.13 104.285L4.85998 93.0148L2.87498 94.9998ZM31.1 55.7148L29.16 50.0048C29.0425 49.6523 28.82 49.3441 28.5224 49.1216C28.2248 48.8991 27.8663 48.7728 27.495 48.7598C26.725 48.7298 26.025 49.1648 25.715 49.8748L13.865 76.9098L16.715 79.7598L31.1 55.7148ZM33.095 53.8098L84 2.90479L82.23 1.13478L32.195 51.1748L33.095 53.8098ZM52.3 75.7748L51.665 70.0548C51.6258 69.6706 51.4626 69.3096 51.2001 69.0264C50.9376 68.7431 50.5901 68.553 50.21 68.4848L43.595 67.2948L23.92 86.9698L27.54 90.5898L52.3 75.7748ZM13.105 90.6548L14.9 92.4498L20.385 86.9648L17.21 83.7898L13.105 90.6548ZM39.065 57.4548L33.345 56.8198L18.53 81.5748L22.15 85.1948L41.825 65.5198L40.635 58.9048C40.5 58.1348 39.855 57.5348 39.065 57.4548ZM57.95 76.9248L131.97 2.90479L130.2 1.13478L55.31 76.0298L57.95 76.9248ZM25.33 91.9098L22.155 88.7348L16.67 94.2198L18.465 96.0148L25.33 91.9098ZM29.76 96.3398L27.155 93.7348L20.29 97.8398L22.13 99.6798L29.76 96.3398ZM78.59 48.2948L80.36 46.5248L74.59 40.7548L56.75 58.5998L62.52 64.3698L64.29 62.5998L60.29 58.5998L66.56 52.3298L70.56 56.3298L72.33 54.5598L68.33 50.5598L74.6 44.2898L78.59 48.2948ZM46.52 44.8398L44.75 46.6098L50.515 52.3748L68.36 34.5298L62.595 28.7648L60.825 30.5348L64.825 34.5348L58.555 40.8048L54.555 36.8048L52.785 38.5748L56.785 42.5748L50.515 48.8448L46.52 44.8398ZM59.25 83.4098C59.5943 83.261 59.8853 83.0111 60.0844 82.6933C60.2835 82.3754 60.3814 82.0045 60.365 81.6298C60.3519 81.2584 60.2257 80.8999 60.0032 80.6024C59.7807 80.3048 59.4725 80.0823 59.12 79.9648L53.41 78.0248L29.365 92.4098L32.215 95.2598L59.25 83.4098ZM44.255 64.8698L45.755 65.1398L107.99 2.90479L106.22 1.13478L43.985 63.3698L44.255 64.8698ZM134.555 104.26L136.325 102.49L130.56 96.7248L112.715 114.57L118.48 120.335L120.25 118.565L116.25 114.565L122.52 108.295L126.52 112.295L128.29 110.525L124.29 106.525L130.56 100.255L134.555 104.26ZM147.985 95.2898L97.075 146.195L98.845 147.965L148.88 97.9298L147.985 95.2898ZM102.49 100.805L100.72 102.575L106.49 108.345L124.33 90.4998L118.56 84.7298L116.79 86.4998L120.79 90.4998L114.52 96.7698L110.52 92.7698L108.75 94.5398L112.75 98.5398L106.48 104.81L102.49 100.805ZM142.55 108.715L164.31 130.475L146.47 148.32L124.71 126.56L126.48 124.79L130.48 128.79L136.75 122.52L132.75 118.52L134.52 116.75L138.52 120.75L144.79 114.48L140.79 110.48L142.55 108.715ZM138.47 136.785L144.74 130.515L138.51 124.285L132.24 130.555L138.47 136.785ZM152.735 138.515L146.505 132.285L140.235 138.555L146.465 144.78L152.735 138.515ZM154.545 124.25L148.275 130.52L154.5 136.745L160.77 130.475L154.545 124.25ZM146.55 116.25L140.28 122.52L146.51 128.75L152.78 122.48L146.55 116.25ZM136.825 84.2298L135.325 83.9598L73.09 146.195L74.86 147.965L137.095 85.7298L136.825 84.2298ZM149.98 93.3898L151.92 99.0998C152.165 99.8248 152.82 100.315 153.585 100.345C154.355 100.375 155.055 99.9398 155.365 99.2298L167.215 72.1948L164.365 69.3448L149.98 93.3898ZM161.415 48.3498L172.685 59.6198L174.45 57.8498L163.18 46.5798L161.415 48.3498ZM178.205 42.8298C175.095 39.7198 170.045 39.7198 166.935 42.8298L164.95 44.8148L176.22 56.0848L178.205 54.0998C181.315 50.9848 181.315 45.9398 178.205 42.8298ZM165.69 67.1348L168.295 69.7398L171.64 62.1098L169.8 60.2698L165.69 67.1348ZM83.03 84.8848L19.955 147.965L17.125 145.135L80.205 82.0548L68.74 70.5898L70.51 68.8198L74.51 72.8198L80.78 66.5498L76.78 62.5498L78.55 60.7798L82.55 64.7798L88.82 58.5098L84.82 54.5098L86.59 52.7398L98.055 64.2048L161.135 1.12479L163.965 3.95479L100.875 67.0448L112.34 78.5098L110.57 80.2798L106.57 76.2798L100.3 82.5498L104.3 86.5498L102.53 88.3198L98.53 84.3198L92.26 90.5898L96.26 94.5898L94.5 96.3498L83.03 84.8848ZM96.765 82.5448L91.065 76.8448L84.795 83.1148L90.495 88.8148L96.765 82.5448ZM92.835 75.0798L98.535 80.7798L104.805 74.5098L99.105 68.8098L92.835 75.0798ZM84.31 66.5548L90.005 72.2498L96.275 65.9798L90.58 60.2848L84.31 66.5548ZM81.97 80.2898L88.24 74.0198L82.545 68.3248L76.275 74.5948L81.97 80.2898ZM130.865 80.6148L137.48 81.8048L157.155 62.1298L153.535 58.5098L128.78 73.3248L129.415 79.0448C129.452 79.4289 129.614 79.7902 129.876 80.0737C130.138 80.3571 130.485 80.5472 130.865 80.6148ZM123.13 72.1748L49.105 146.195L50.875 147.965L125.77 73.0698L123.13 72.1748ZM121.825 65.6898C121.481 65.8386 121.19 66.0884 120.991 66.4063C120.791 66.7242 120.694 67.0951 120.71 67.4698C120.723 67.8411 120.849 68.1996 121.072 68.4972C121.294 68.7948 121.602 69.0173 121.955 69.1348L127.665 71.0748L151.71 56.6898L148.86 53.8398L121.825 65.6898ZM151.32 52.7648L153.925 55.3698L160.79 51.2648L158.95 49.4248L151.32 52.7648ZM142.01 91.6448L147.73 92.2798L162.545 67.5248L158.925 63.9048L139.25 83.5798L140.44 90.1948C140.575 90.9648 141.225 91.5648 142.01 91.6448ZM155.745 57.1898L158.92 60.3648L164.405 54.8798L162.61 53.0848L155.745 57.1898ZM167.975 58.4448L166.18 56.6498L160.695 62.1348L163.87 65.3098L167.975 58.4448Z" fill="#FFD166"/>
</svg>
