<svg width="180" height="180" viewBox="0 0 180 180" fill="none" xmlns="http://www.w3.org/2000/svg">
<path d="M168.49 64.36C157.52 53.39 141.63 50.265 127.855 54.975L163.445 19.385L160.615 16.555L110.015 67.155H115.675C129.47 53.4 151.88 53.41 165.66 67.185C179.45 80.975 179.45 103.42 165.66 117.21L142.865 140.03L131.94 129.105L158.78 102.265L138.71 82.195L138.035 85.055L155.245 102.265L130.175 127.335L115.635 112.795H109.975L160.62 163.44L163.45 160.61L145.695 142.855L168.49 120.035C183.835 104.69 183.835 79.71 168.49 64.36ZM64.375 112.8L64.355 112.82C50.565 126.6 28.13 126.6 14.345 112.81C0.555001 99.02 0.555001 76.58 14.345 62.785L37.14 39.965L48.065 50.89L21.225 77.73L41.79 98.295L42.455 95.425L24.76 77.73L49.83 52.66L64.325 67.155H69.985L19.385 16.555L16.555 19.385L34.31 37.14L11.51 59.96C-3.84 75.31 -3.84 100.29 11.51 115.64C22.48 126.61 38.37 129.735 52.145 125.025L16.555 160.615L19.385 163.445L70.03 112.8H64.375ZM135.545 84.7L129.28 89.745L133.375 94.67L131.065 104.405L123.3 110.3H112.67L114.895 100.845H117.16L118.605 94.625H112.285L114.605 84.595H120.865L122.195 79.12H117.375L119.57 69.66H132.785L137.71 75.575L135.545 84.7ZM109 100.845H111.85L109.625 110.3H101.74L71.095 79.155H68.26L70.405 69.66H78.335L109 100.845ZM58.46 100.88H63.285L61.085 110.3H47.855L42.95 104.345L45.17 94.765L51.475 89.705L47.38 84.78L49.615 75.59L57.315 69.655H67.365L65.14 79.23H63.49L62.145 84.79H68.465L66.145 94.825H59.885L58.46 100.88ZM79.45 92.01L87.225 99.83L76.695 110.3H64.095L66.295 100.88H70.455L79.45 92.01ZM100.57 87.93L92.79 80.155L103.39 69.66H116.525L114.325 79.12H109.605L100.57 87.93ZM78.745 24.91C78.36 18.265 76.055 11.98 72.105 6.705C76.4 2.9 81.92 0.445 88 0V24.91H78.745ZM107.895 6.705C103.6 2.9 98.08 0.445 92 0V24.91H101.255C101.64 18.265 103.945 11.985 107.895 6.705ZM74.735 28.91H63.08C63.505 34.71 65.76 40 69.275 44.205C72.48 39.725 74.365 34.465 74.735 28.91ZM74.735 24.91C74.37 19.355 72.48 14.095 69.275 9.615C65.6561 13.9369 63.4887 19.2879 63.08 24.91H74.735ZM101.255 28.91H92V53.82C98.08 53.375 103.6 50.92 107.895 47.115C103.945 41.84 101.64 35.555 101.255 28.91ZM105.27 24.91H116.925C116.516 19.2879 114.349 13.9369 110.73 9.615C107.525 14.095 105.635 19.355 105.27 24.91ZM105.27 28.91C105.635 34.465 107.525 39.725 110.73 44.205C114.347 39.8819 116.514 34.5316 116.925 28.91H105.27ZM88 28.91H78.745C78.36 35.555 76.055 41.84 72.105 47.115C76.405 50.92 81.92 53.375 88 53.82V28.91ZM92 155.09V180C98.08 179.555 103.6 177.1 107.895 173.295C103.94 168.015 101.64 161.735 101.255 155.09H92ZM72.105 173.295C76.4 177.1 81.92 179.555 88 180V155.09H78.745C78.36 161.735 76.055 168.015 72.105 173.295ZM105.265 151.09H116.92C116.511 145.468 114.344 140.117 110.725 135.795C107.52 140.275 105.635 145.535 105.265 151.09ZM105.265 155.09C105.63 160.645 107.52 165.905 110.725 170.385C114.344 166.063 116.511 160.712 116.92 155.09H105.265ZM78.745 151.09H88V126.18C81.92 126.625 76.4 129.08 72.105 132.885C76.055 138.16 78.36 144.445 78.745 151.09ZM74.73 155.09H63.075C63.5 160.89 65.755 166.18 69.27 170.385C72.475 165.905 74.365 160.645 74.73 155.09ZM74.73 151.09C74.365 145.535 72.475 140.275 69.27 135.795C65.6531 140.118 63.486 145.468 63.075 151.09H74.73ZM92 151.09H101.255C101.64 144.445 103.945 138.16 107.895 132.885C103.595 129.08 98.08 126.625 92 126.18V151.09Z" fill="#FFD166"/>
</svg>
