<svg width="180" height="180" viewBox="0 0 180 180" fill="none" xmlns="http://www.w3.org/2000/svg">
<path d="M78.745 24.91C78.36 18.265 76.055 11.98 72.105 6.705C76.4 2.9 81.92 0.445 88 0V24.91H78.745ZM107.895 6.705C103.6 2.9 98.08 0.445 92 0V24.91H101.255C101.64 18.265 103.945 11.985 107.895 6.705ZM74.735 28.91H63.08C63.505 34.71 65.76 40 69.275 44.205C72.48 39.725 74.365 34.465 74.735 28.91ZM74.735 24.91C74.37 19.355 72.48 14.095 69.275 9.615C65.6561 13.9369 63.4887 19.2879 63.08 24.91H74.735ZM101.255 28.91H92V53.82C98.08 53.375 103.6 50.92 107.895 47.115C103.945 41.84 101.64 35.555 101.255 28.91ZM105.27 24.91H116.925C116.516 19.2879 114.349 13.9369 110.73 9.615C107.525 14.095 105.635 19.355 105.27 24.91ZM105.27 28.91C105.635 34.465 107.525 39.725 110.73 44.205C114.347 39.8819 116.514 34.5316 116.925 28.91H105.27ZM88 28.91H78.745C78.36 35.555 76.055 41.84 72.105 47.115C76.405 50.92 81.92 53.375 88 53.82V28.91ZM92 155.09V180C98.08 179.555 103.6 177.1 107.895 173.295C103.94 168.015 101.64 161.735 101.255 155.09H92ZM72.105 173.295C76.4 177.1 81.92 179.555 88 180V155.09H78.745C78.36 161.735 76.055 168.015 72.105 173.295ZM105.265 151.09H116.92C116.511 145.468 114.344 140.117 110.725 135.795C107.52 140.275 105.635 145.535 105.265 151.09ZM105.265 155.09C105.63 160.645 107.52 165.905 110.725 170.385C114.344 166.063 116.511 160.712 116.92 155.09H105.265ZM78.745 151.09H88V126.18C81.92 126.625 76.4 129.08 72.105 132.885C76.055 138.16 78.36 144.445 78.745 151.09ZM74.73 155.09H63.075C63.5 160.89 65.755 166.18 69.27 170.385C72.475 165.905 74.365 160.645 74.73 155.09ZM74.73 151.09C74.365 145.535 72.475 140.275 69.27 135.795C65.6531 140.118 63.486 145.468 63.075 151.09H74.73ZM92 151.09H101.255C101.64 144.445 103.945 138.16 107.895 132.885C103.595 129.08 98.08 126.625 92 126.18V151.09ZM168.485 120.03L145.685 142.84L163.44 160.585L160.61 163.415L90 92.83L67.19 115.63C67.185 115.635 67.18 115.635 67.18 115.64L19.385 163.415L16.555 160.585L52.145 125.01C38.37 129.72 22.48 126.595 11.51 115.63C-3.84 100.285 -3.84 75.315 11.51 59.97L34.31 37.16L16.555 19.415L19.385 16.585L90 87.17L160.615 16.585L163.445 19.415L127.855 54.99C141.63 50.28 157.52 53.405 168.49 64.37C183.835 79.715 183.835 104.685 168.485 120.03ZM49.835 52.68L24.765 77.74L49.42 102.385L74.49 77.325L49.835 52.68ZM26.715 83.235C22.195 87.995 22.255 95.54 26.93 100.21C31.6 104.88 39.15 104.945 43.915 100.425L26.715 83.235ZM87.17 90L76.255 79.09L49.415 105.92L45.68 102.2C39.94 107.695 30.8 107.625 25.155 101.98C19.51 96.335 19.44 87.2 24.935 81.465L21.22 77.74L48.06 50.91L37.135 39.99L14.34 62.8C0.55 76.585 0.55 99.015 14.34 112.8C28.13 126.58 50.56 126.585 64.35 112.81L87.17 90ZM130.165 127.32L155.235 102.26L130.58 77.615L105.51 102.675L130.165 127.32ZM153.285 96.77C157.805 92.01 157.745 84.46 153.07 79.79C148.4 75.12 140.845 75.055 136.085 79.575L153.285 96.77ZM92.83 90L103.745 100.91L130.585 74.08L134.315 77.805C140.055 72.31 149.195 72.375 154.84 78.02C160.485 83.665 160.555 92.8 155.055 98.54L158.775 102.265L131.935 129.095L142.86 140.015L165.655 117.205C179.445 103.42 179.445 80.99 165.655 67.205C151.865 53.42 129.425 53.42 115.635 67.205L92.83 90Z" fill="#FFD166"/>
</svg>
