<svg width="148" height="180" viewBox="0 0 148 180" fill="none" xmlns="http://www.w3.org/2000/svg">
<path d="M30.58 130.595L33.41 133.425L3.41502 163.42L0.585014 160.59L30.58 130.595ZM114.595 133.42L144.59 163.415L147.42 160.585L117.425 130.59L114.595 133.42ZM147.415 19.415L144.585 16.585L126.73 34.44L129.56 37.27L147.415 19.415ZM33.405 46.58L3.41002 16.585L0.580017 19.415L30.575 49.41L33.405 46.58ZM46.81 64.06C46.599 63.743 46.4778 63.3748 46.4593 62.9945C46.4409 62.6142 46.5258 62.2359 46.705 61.9C46.8846 61.5643 47.1521 61.2836 47.4788 61.0881C47.8055 60.8926 48.1793 60.7896 48.56 60.79H69.355C69.9889 60.79 70.5968 61.0418 71.045 61.49C71.4932 61.9382 71.745 62.5461 71.745 63.18C71.745 64.21 71.09 65.12 70.11 65.445L62.59 67.95L63.96 74.115L104.78 65.015L106.095 70.915L69.18 97.6L70.905 105.35L67 106.22L65.34 98.75H30.7L29.625 95.065L43.635 86.125C40.56 82.385 35.905 79.995 30.7 79.995C21.465 79.995 13.95 87.51 13.95 96.75C13.95 105.99 21.465 113.505 30.7 113.505C38.375 113.505 44.86 108.31 46.83 101.25H55.035C52.92 112.77 42.83 121.505 30.7 121.505C17.03 121.505 5.95002 110.42 5.95002 96.75C5.95002 83.08 17.03 71.995 30.7 71.995C42.83 71.995 52.92 80.73 55.035 92.25H46.83C46.565 91.295 46.21 90.375 45.79 89.495L37.555 94.75H64.45L61.11 79.72L54.68 83.825C54.045 82.645 53.32 81.525 52.52 80.455L60.185 75.565L58.775 69.22L58.495 69.315C57.54 69.635 56.555 69.785 55.585 69.785C52.555 69.785 49.625 68.29 47.875 65.67L46.81 64.06ZM64.83 78.02L68.235 93.35L100.415 70.085L64.83 78.02ZM72.125 148.545L68.2 144.045C65.2521 147.161 63.0666 150.917 61.815 155.02H70.87L72.535 151.52C73.005 150.54 72.84 149.37 72.125 148.545ZM60.875 134.6C60.875 134.6 59.53 137.325 61.45 141.035H68.88L74.005 146.905C74.6771 147.675 75.1094 148.625 75.2489 149.638C75.3883 150.65 75.2289 151.682 74.79 152.605L74.035 154.185L97.555 167.5C98.9 165.17 99.99 162.24 100.395 158.42L71.335 129.36L60.875 134.6ZM61.17 157.525H61.16C61.16 157.525 60.515 160.49 60.59 163.17H51.91L46.12 166.265L60.595 171.21C64.335 172.49 68 173.98 71.54 175.735C74.935 177.42 80.7 179.645 87.96 180C88.51 178.095 89.64 176.45 91.345 174.74C92.44 173.645 93.845 172.395 95.23 170.77L71.825 157.52H61.17V157.525ZM114.25 97.185L118.155 96.315L114.54 80.08C115.085 80.025 115.64 79.995 116.2 79.995C125.435 79.995 132.95 87.51 132.95 96.75C132.95 105.99 125.435 113.505 116.2 113.505C106.965 113.505 99.45 105.99 99.45 96.75C99.45 90.275 103.145 84.65 108.535 81.86L106.755 73.865C97.775 77.58 91.45 86.425 91.45 96.75C91.45 110.42 102.53 121.505 116.2 121.505C129.87 121.505 140.95 110.42 140.95 96.75C140.95 83.08 129.87 71.995 116.2 71.995C115.045 71.995 113.91 72.085 112.795 72.24L109.575 57.77L116.065 56.325L109.935 28.785L106.03 29.655L111.29 53.29L104.8 54.735L114.25 97.185ZM87.125 45.4C87.125 45.4 88.47 42.675 86.55 38.965H79.12L73.995 33.095C73.3226 32.3249 72.8903 31.3747 72.7517 30.3618C72.6131 29.3488 72.7742 28.3175 73.215 27.395L73.97 25.815L50.45 12.5C49.105 14.83 48.015 17.76 47.61 21.58L76.67 50.64L87.125 45.4ZM75.875 31.455L79.8 35.955C82.7479 32.8393 84.9334 29.0826 86.185 24.98H77.13L75.465 28.48C75.235 28.9617 75.1513 29.5002 75.2242 30.0289C75.2971 30.5577 75.5233 31.0535 75.875 31.455ZM86.83 22.475H86.84C86.84 22.475 87.485 19.51 87.41 16.83H96.09L101.88 13.735L87.405 8.79C83.665 7.51 80 6.02 76.46 4.265C73.065 2.58 67.3 0.355 60.04 0C59.49 1.905 58.36 3.55 56.655 5.26C55.56 6.355 54.155 7.605 52.77 9.23L76.175 22.48H86.83V22.475Z" fill="#FFD166"/>
</svg>
