<svg width="180" height="180" viewBox="0 0 180 180" fill="none" xmlns="http://www.w3.org/2000/svg">
<path d="M107.405 43.755C113.365 37.8 120.595 41.96 126.175 36.105C127.845 34.425 130.58 34.46 132.255 36.14L143.615 47.5C144.017 47.9014 144.336 48.378 144.553 48.9026C144.771 49.4272 144.882 49.9896 144.882 50.5575C144.882 51.1254 144.771 51.6878 144.553 52.2124C144.336 52.737 144.017 53.2136 143.615 53.615L133.48 63.75C133.4 63.64 125.065 55.365 124.99 55.255C120.755 51.02 113.735 50.865 109.66 55.255C107.965 57.08 105.005 58.56 102.685 56.695C100.505 55.055 99.03 51.985 101.32 49.77C103.91 47.21 107.365 43.79 107.405 43.755ZM111.36 57.44C107.845 61.06 103.17 61.435 99.77 57.36C93.24 62.755 92.34 72.7 98.475 78.755C105.525 87.035 114.72 93.4 124.41 84.59C129.31 79.57 138.42 73.185 131.46 65.71C126.18 60.86 118.905 49.665 111.36 57.44ZM139.245 130.755L180 90L145.385 55.385L142.555 58.215L172.345 88H163.41L143.325 67.915L141.555 69.685L159.875 88H150.94L143.33 80.39L141.56 82.16L149.4 90L141.555 97.845L143.325 99.615L150.935 92H159.87L141.555 110.315L143.325 112.085L163.41 92H172.345L136.415 127.93L139.245 130.755ZM146.205 46.555L158.475 34.285L145.3 21.455L133.2 33.55L146.205 46.555ZM88 7.655V16.59L67.915 36.675L69.685 38.445L88 20.125V29.06L80.39 36.67L82.16 38.44L90 30.6L97.845 38.445L99.615 36.675L92 29.065V20.13L110.315 38.445L112.085 36.675L92 16.59V7.655L120.915 36.57C122.16 36.15 123.295 35.5 124.365 34.38L124.375 34.37L90 0L49.245 40.755L52.075 43.585L88 7.655ZM16.585 19.415L160.585 163.415L163.415 160.585L19.415 16.585L16.585 19.415ZM68.64 122.56C72.155 118.94 76.83 118.565 80.23 122.64C86.76 117.245 87.66 107.3 81.525 101.245C74.475 92.965 65.28 86.6 55.59 95.41C50.69 100.43 41.58 106.815 48.54 114.29C53.82 119.14 61.095 130.335 68.64 122.56ZM92 172.345V163.41L112.085 143.325L110.315 141.555L92 159.875V150.94L99.61 143.33L97.84 141.56L90 149.4L82.155 141.555L80.385 143.325L88 150.935V159.87L69.685 141.555L67.915 143.325L88 163.41V172.345L59.085 143.43C57.84 143.85 56.705 144.5 55.635 145.62L55.625 145.63L90 180L130.755 139.245L127.925 136.415L92 172.345ZM40.755 49.245L0 90L34.615 124.615L37.445 121.785L7.655 92H16.59L36.675 112.085L38.445 110.315L20.125 92H29.06L36.67 99.61L38.44 97.84L30.6 90L38.445 82.155L36.675 80.385L29.065 88H20.125L38.44 69.685L36.67 67.915L16.59 88H7.655L43.585 52.07L40.755 49.245ZM33.795 133.445L21.525 145.715L34.7 158.545L46.795 146.45C46.77 146.42 33.825 133.475 33.795 133.445ZM78.675 130.23C80.965 128.015 79.49 124.945 77.31 123.305C74.99 121.44 72.035 122.915 70.335 124.745C66.265 129.13 59.24 128.975 55.005 124.745C54.93 124.635 46.595 116.36 46.515 116.25L36.38 126.385C35.9782 126.786 35.6594 127.263 35.4419 127.788C35.2245 128.312 35.1125 128.875 35.1125 129.443C35.1125 130.01 35.2245 130.573 35.4419 131.097C35.6594 131.622 35.9782 132.099 36.38 132.5L47.74 143.86C49.415 145.535 52.15 145.575 53.82 143.895C59.4 138.04 66.63 142.2 72.59 136.245C72.635 136.21 76.09 132.79 78.675 130.23Z" fill="#FFD166"/>
</svg>
