<svg width="180" height="180" viewBox="0 0 180 180" fill="none" xmlns="http://www.w3.org/2000/svg">
<path d="M23.26 150.375C5.69002 130.985 -1.92998 105.79 0.410016 81.3651L2.90002 81.6051C0.630018 105.315 8.01002 129.77 25.03 148.605L23.26 150.375ZM100.58 159.935C100.7 159.51 101.035 159.185 101.465 159.07C102.655 158.755 104.125 158.005 104.335 157.44C104.35 157.4 104.39 157.29 104.195 157.01C102.865 155.1 96.755 148.28 90.205 141.95C79.05 131.165 75.105 129.755 73.925 129.65C73.88 129.645 73.84 129.645 73.8 129.645C73.835 129.95 73.94 130.245 74.115 130.515C74.92 131.745 76.48 134.415 79.085 139.93C79.805 141.455 80.515 143.325 81.19 145.37H84.315C84.6465 145.37 84.9645 145.502 85.1989 145.736C85.4333 145.971 85.565 146.289 85.565 146.62C85.565 146.952 85.4333 147.27 85.1989 147.504C84.9645 147.738 84.6465 147.87 84.315 147.87H81.98C82.2 148.595 82.41 149.33 82.62 150.07H86.32C86.6515 150.07 86.9695 150.202 87.2039 150.436C87.4383 150.671 87.57 150.989 87.57 151.32C87.57 151.652 87.4383 151.97 87.2039 152.204C86.9695 152.438 86.6515 152.57 86.32 152.57H83.3C83.495 153.305 83.685 154.04 83.865 154.77H88.325C88.6565 154.77 88.9745 154.902 89.2089 155.136C89.4433 155.371 89.575 155.689 89.575 156.02C89.575 156.352 89.4433 156.67 89.2089 156.904C88.9745 157.138 88.6565 157.27 88.325 157.27H84.475C84.655 158.02 84.825 158.755 84.99 159.47H90.33C90.6615 159.47 90.9795 159.602 91.2139 159.836C91.4483 160.071 91.58 160.389 91.58 160.72C91.58 161.052 91.4483 161.37 91.2139 161.604C90.9795 161.838 90.6615 161.97 90.33 161.97H85.545C86.135 164.68 86.58 166.905 86.82 168.15C86.935 168.735 87.615 169 88.1 168.655C89.585 167.595 90.075 166.075 90.075 166.075C90.075 166.075 95.835 164.84 99.765 169.26C103.695 173.675 100.835 179.58 100.835 179.58C101.26 179.865 101.75 180.005 102.235 180.005C102.571 180.006 102.904 179.941 103.214 179.813C103.525 179.685 103.807 179.497 104.045 179.26C106.39 176.945 108.57 175.46 109.915 174.655C109.59 173.15 108.055 168.785 100.865 161.135C100.719 160.976 100.616 160.782 100.566 160.572C100.516 160.362 100.521 160.143 100.58 159.935ZM99.885 54.1801C102.3 54.7851 103.99 53.8051 105.075 52.7001C96.815 50.6001 75.965 27.5851 73.76 24.4151C72.985 23.3001 73.095 22.3201 73.325 21.6901C73.76 20.5101 74.96 19.7001 76.04 19.1901C70.225 12.7301 68.355 8.57013 67.76 6.40013C66.59 6.77513 64.53 7.43513 62.675 7.99013C61.745 8.26513 61 8.98513 60.725 9.91513C58.495 17.4701 70.95 28.2051 78.1 35.8901C88.26 45.9351 95.14 52.9951 99.885 54.1801ZM79.42 20.0651C79.3 20.4901 78.965 20.8151 78.535 20.9301C77.345 21.2451 75.875 21.9951 75.665 22.5601C75.65 22.6001 75.61 22.7101 75.805 22.9901C77.135 24.9001 83.25 31.7201 89.795 38.0501C100.945 48.8351 104.895 50.2451 106.075 50.3501C106.12 50.3551 106.16 50.3551 106.2 50.3551C106.164 50.0446 106.056 49.7468 105.885 49.4851C105.08 48.2551 103.52 45.5851 100.915 40.0701C100.195 38.5451 99.485 36.6751 98.81 34.6301H95.685C95.3535 34.6301 95.0356 34.4984 94.8011 34.264C94.5667 34.0296 94.435 33.7117 94.435 33.3801C94.435 33.0486 94.5667 32.7307 94.8011 32.4963C95.0356 32.2618 95.3535 32.1301 95.685 32.1301H98.02C97.8 31.4051 97.59 30.6701 97.38 29.9301H93.68C93.3485 29.9301 93.0305 29.7984 92.7961 29.564C92.5617 29.3296 92.43 29.0117 92.43 28.6801C92.43 28.3486 92.5617 28.0307 92.7961 27.7962C93.0305 27.5618 93.3485 27.4301 93.68 27.4301H96.7C96.505 26.6951 96.315 25.9601 96.135 25.2301H91.675C91.3435 25.2301 91.0256 25.0984 90.7911 24.864C90.5567 24.6296 90.425 24.3117 90.425 23.9801C90.425 23.6486 90.5567 23.3307 90.7911 23.0962C91.0256 22.8618 91.3435 22.7301 91.675 22.7301H95.525C95.345 21.9801 95.175 21.2451 95.01 20.5301H89.665C89.3335 20.5301 89.0156 20.3984 88.7811 20.164C88.5467 19.9296 88.415 19.6117 88.415 19.2801C88.415 18.9486 88.5467 18.6307 88.7811 18.3963C89.0156 18.1618 89.3335 18.0301 89.665 18.0301H94.45C94.0014 15.9751 93.5763 13.9149 93.175 11.8501C93.06 11.2651 92.38 11.0001 91.895 11.3451C90.41 12.4051 89.92 13.9251 89.92 13.9251C89.92 13.9251 84.16 15.1601 80.23 10.7401C76.3 6.32014 79.16 0.420131 79.16 0.420131C78.735 0.135131 78.245 -0.00486783 77.76 -0.00486783C77.4241 -0.00601941 77.0913 0.0592033 76.7807 0.187053C76.4701 0.314904 76.1878 0.502864 75.95 0.740135C73.605 3.05513 71.425 4.54013 70.08 5.34513C70.405 6.85013 71.94 11.2151 79.13 18.8651C79.43 19.1851 79.54 19.6401 79.42 20.0651ZM150.43 147.58L163.415 160.585L160.585 163.415L147.58 150.41C140.57 157.09 132.41 162.575 123.425 166.515C123.24 165.23 122.855 163.935 122.31 162.635C130.645 158.915 138.225 153.795 144.755 147.585L128.16 130.99C121.86 136.86 114.54 141.01 106.79 143.44C106.11 142.74 105.46 142.06 104.855 141.41C112.665 139.16 120.065 135.1 126.39 129.22L92.865 95.6951C91.9759 96.1415 90.9948 96.3739 90 96.3739C89.0052 96.3739 88.0241 96.1415 87.135 95.6951L53.61 129.22C60 135.155 67.485 139.24 75.385 141.475C75.41 141.53 75.435 141.58 75.46 141.635C75.835 142.43 76.22 143.36 76.6 144.385C67.605 142.18 59.05 137.715 51.835 130.99L35.245 147.58C47.91 159.63 64.53 167.56 82.935 169.185C83.025 169.765 83.415 171.58 84.87 173.34C64.595 172.105 46.25 163.6 32.415 150.41L19.41 163.415L16.58 160.585L84.3 92.8651C83.8537 91.976 83.6213 90.995 83.6213 90.0001C83.6213 89.0053 83.8537 88.0242 84.3 87.1351L77.54 80.3751C73.735 85.2901 73.225 91.9301 76.03 97.2951L69.07 104.555C64.02 97.3101 63.15 88.0401 66.485 80.1051L64.18 79.1351C60.46 87.9851 61.485 98.3551 67.265 106.36L64.055 109.57C57.995 101.56 56.125 91.3851 58.475 82.0451L56.05 81.4351C53.495 91.6051 55.56 102.695 62.26 111.365L59.065 114.56C52.525 106.345 49.72 96.1351 50.67 86.2101L48.18 85.9701C47.16 96.6151 50.205 107.565 57.285 116.34L54.08 119.545C42.89 105.975 40.57 87.5451 47.125 71.9601L44.82 70.9901C37.88 87.4851 40.38 107 52.305 121.32L49.12 124.505C34.065 106.71 32.465 81.4201 44.36 62.0451L42.23 60.7401C29.745 81.0751 31.465 107.645 47.35 126.28L44.155 129.475C29.885 112.935 26.025 90.5201 32.605 70.8051L30.235 70.0101C23.365 90.5951 27.425 114.01 42.385 131.245L39.195 134.435C24.175 117.295 19.28 94.3801 24.535 73.4801L22.11 72.8701C16.645 94.5951 21.76 118.42 37.42 136.21L34.235 139.395C14.79 117.48 10.47 86.8601 21.315 61.0901L19.01 60.1201C7.78502 86.8001 12.28 118.51 32.465 141.165L27.865 145.765C-1.15998 113.485 -0.574986 64.0451 29.56 32.4251L16.575 19.4201L19.405 16.5901L32.41 29.5951C39.42 22.9151 47.58 17.4351 56.565 13.4901C56.75 14.7751 57.135 16.0701 57.68 17.3701C49.345 21.0901 41.765 26.2101 35.235 32.4201L51.83 49.0151C58.13 43.1451 65.45 38.9951 73.2 36.5701C73.88 37.2701 74.53 37.9501 75.135 38.6001C67.325 40.8501 59.925 44.9101 53.6 50.7851L87.125 84.3101C88.92 83.4051 91.055 83.4051 92.855 84.3101L126.38 50.7851C119.99 44.8501 112.505 40.7651 104.605 38.5301C104.58 38.4751 104.555 38.4251 104.525 38.3651C104.15 37.5701 103.765 36.6401 103.385 35.6201C112.38 37.8251 120.935 42.2901 128.15 49.0151L144.74 32.4251C132.075 20.3751 115.455 12.4451 97.05 10.8201C96.96 10.2401 96.57 8.42513 95.115 6.66513C115.39 7.90013 133.735 16.4051 147.57 29.5951L160.575 16.5901L163.405 19.4201L95.69 87.1351C96.595 88.9301 96.595 91.0651 95.69 92.8651L102.45 99.6251C106.25 94.7201 106.765 88.1001 103.975 82.7401L110.915 75.4451C115.965 82.6901 116.835 91.9601 113.495 99.8951L115.8 100.865C119.52 92.0151 118.495 81.6451 112.715 73.6401L115.925 70.4301C121.985 78.4401 123.855 88.6151 121.505 97.9551L123.93 98.5651C126.485 88.3951 124.42 77.3051 117.72 68.6351L120.915 65.4401C127.455 73.6551 130.26 83.8651 129.31 93.7901L131.8 94.0301C132.82 83.3851 129.775 72.4351 122.695 63.6651L125.9 60.4601C137.09 74.0301 139.41 92.4601 132.855 108.045L135.16 109.015C142.1 92.5201 139.6 73.0051 127.675 58.6851L130.86 55.5001C145.915 73.2951 147.515 98.5851 135.62 117.96L137.75 119.265C150.235 98.9301 148.515 72.3601 132.63 53.7251L135.825 50.5301C150.095 67.0701 153.955 89.4851 147.375 109.2L149.745 109.995C156.615 89.4101 152.555 65.9951 137.595 48.7601L140.785 45.5701C155.805 62.7101 160.7 85.6251 155.445 106.525L157.87 107.135C163.335 85.4101 158.22 61.5851 142.56 43.7951L145.745 40.6101C165.19 62.5251 169.51 93.1451 158.665 118.915L160.97 119.885C172.195 93.2051 167.7 61.4951 147.515 38.8401L152.115 34.2401C181.15 66.5201 180.565 115.96 150.43 147.58ZM93.875 90.0001C93.875 88.9724 93.4668 87.9868 92.7401 87.2601C92.0133 86.5334 91.0277 86.1251 90 86.1251C88.9723 86.1251 87.9867 86.5334 87.26 87.2601C86.5333 87.9868 86.125 88.9724 86.125 90.0001C86.125 91.0278 86.5333 92.0135 87.26 92.7402C87.9867 93.4669 88.9723 93.8751 90 93.8751C91.0277 93.8751 92.0133 93.4669 92.7401 92.7402C93.4668 92.0135 93.875 91.0278 93.875 90.0001ZM156.74 29.6251L154.97 31.3951C171.99 50.2351 179.37 74.6901 177.1 98.3951L179.59 98.6351C181.93 74.2101 174.31 49.0151 156.74 29.6251ZM80.115 125.82C77.7 125.215 76.01 126.195 74.925 127.3C83.19 129.405 104.035 152.415 106.24 155.585C107.015 156.7 106.905 157.68 106.675 158.31C106.24 159.49 105.04 160.3 103.96 160.81C109.775 167.27 111.645 171.43 112.24 173.6C113.41 173.225 115.47 172.565 117.325 172.01C118.255 171.73 119 171.015 119.275 170.085C121.505 162.53 109.05 151.795 101.9 144.11C91.74 134.065 84.86 127.005 80.115 125.82Z" fill="#FFD166"/>
</svg>
