<svg width="180" height="180" viewBox="0 0 180 180" fill="none" xmlns="http://www.w3.org/2000/svg">
<path d="M66.02 28.09C68.69 25.42 69.815 23.12 70.495 20.865L72.47 22.84C71.665 25.005 70.35 27.3 67.79 29.86C63.47 34.18 59.905 34.96 56.455 35.72C53.215 36.43 50.155 37.105 46.355 40.905L44.585 39.14C48.905 34.82 52.47 34.04 55.92 33.28C59.16 32.56 62.22 31.89 66.02 28.09ZM73.645 18.525C74.305 15.515 74.94 12.66 78.07 9.22L76.3 7.45C73.065 10.965 72.12 13.985 71.45 16.875L73.545 18.97C73.58 18.82 73.615 18.67 73.645 18.525ZM153.89 97.78L158.485 102.375L167.83 93.035L163.235 88.44L153.89 97.78ZM109.1 6.21C109.905 5.405 110.585 4.625 111.17 3.865L109.385 2.08C108.825 2.84 108.155 3.625 107.335 4.445C105.205 6.575 103.305 7.725 101.475 8.445L103.38 10.35C105.16 9.515 107.045 8.265 109.1 6.21ZM64.815 9.69C65.475 6.68 66.12 3.825 69.245 0.389999L69.615 0H66.295C63.995 2.935 63.2 5.535 62.62 8.04L64.715 10.135C64.75 9.985 64.78 9.835 64.815 9.69ZM88.935 3.235C89.575 3.095 90.22 2.95 90.87 2.79L88.79 0.709999L88.4 0.799999C85.435 1.45 82.385 2.13 78.845 5.045L80.625 6.825C83.63 4.41 86.22 3.83 88.935 3.235ZM0 99.135L4.595 103.73L13.935 94.39L9.34 89.795L0 99.135ZM47.62 26.88C51.07 26.125 54.635 25.34 58.955 21.02C61.515 18.46 62.83 16.165 63.635 14L61.66 12.025C60.98 14.28 59.855 16.585 57.185 19.25C53.385 23.05 50.325 23.725 47.085 24.435C43.635 25.19 40.07 25.975 35.75 30.295L37.52 32.06C41.32 28.265 44.38 27.595 47.62 26.88ZM24.34 74.795L28.935 79.39L38.28 70.05L33.685 65.455L24.34 74.795ZM77.14 75.375L18.885 17.12L17.115 18.885L75.315 77.08C75.92 76.51 76.53 75.94 77.14 75.375ZM50.415 57.915L45.82 53.32L36.515 62.625L41.11 67.22L50.415 57.915ZM112.21 19.18C113.995 18.35 115.875 17.1 117.935 15.04C118.74 14.235 119.42 13.455 120.005 12.695L118.22 10.91C117.66 11.67 116.99 12.455 116.17 13.275C114.04 15.405 112.14 16.555 110.31 17.275L112.21 19.18ZM82.48 27.355C83.14 24.345 83.775 21.49 86.905 18.05L85.135 16.28C81.9 19.795 80.955 22.815 80.285 25.705L82.38 27.8C82.415 27.655 82.45 27.505 82.48 27.355ZM74.855 36.92C71.055 40.72 67.995 41.395 64.755 42.105C61.305 42.86 57.74 43.645 53.425 47.965L55.195 49.73C58.995 45.93 62.055 45.255 65.295 44.545C68.745 43.79 72.31 43.005 76.625 38.685C79.185 36.125 80.5 33.83 81.305 31.665L79.33 29.69C78.645 31.95 77.52 34.255 74.855 36.92ZM21.515 77.625L12.17 86.965L16.765 91.56L26.105 82.22L21.515 77.625ZM121.045 28.015C122.83 27.185 124.715 25.935 126.77 23.875C127.575 23.07 128.255 22.29 128.84 21.53L127.055 19.745C126.495 20.505 125.825 21.29 125.005 22.11C122.875 24.24 120.975 25.39 119.145 26.11L121.045 28.015ZM115.435 29.735C116.075 29.595 116.72 29.455 117.37 29.29L115.29 27.21C115.16 27.24 115.03 27.27 114.9 27.295C111.935 27.945 108.885 28.625 105.345 31.54L107.125 33.32C110.13 30.91 112.72 30.33 115.435 29.735ZM74.12 53.38C77.57 52.62 81.135 51.84 85.455 47.52C88.015 44.96 89.33 42.665 90.135 40.5L88.16 38.525C87.48 40.78 86.355 43.085 83.685 45.75C79.885 49.55 76.825 50.225 73.585 50.935C70.135 51.695 66.57 52.475 62.25 56.795L64.02 58.56C67.82 54.765 70.885 54.095 74.12 53.38ZM91.315 36.19C91.975 33.18 92.61 30.325 95.74 26.885L93.97 25.115C90.735 28.63 89.79 31.65 89.12 34.54L91.215 36.635C91.25 36.485 91.28 36.34 91.315 36.19ZM100.15 45.025C100.81 42.015 101.445 39.16 104.58 35.72L102.81 33.95C99.575 37.465 98.63 40.485 97.96 43.375L100.055 45.47C100.085 45.32 100.115 45.17 100.15 45.025ZM108.54 20.455L106.46 18.375C106.33 18.405 106.2 18.435 106.07 18.46C103.105 19.11 100.055 19.79 96.515 22.705L98.295 24.485C101.3 22.08 103.89 21.5 106.61 20.905C107.245 20.76 107.885 20.62 108.54 20.455ZM82.955 62.215C86.405 61.46 89.97 60.675 94.29 56.355C96.85 53.795 98.165 51.5 98.97 49.335L96.995 47.36C96.315 49.615 95.19 51.92 92.52 54.585C88.72 58.385 85.66 59.06 82.42 59.77C78.97 60.525 75.405 61.31 71.085 65.63L72.85 67.395C76.655 63.6 79.715 62.925 82.955 62.215ZM89.455 15.65C92.46 13.245 95.05 12.665 97.77 12.07C98.41 11.93 99.055 11.79 99.705 11.625L97.625 9.545C97.495 9.575 97.365 9.605 97.235 9.63C94.27 10.28 91.22 10.96 87.68 13.875L89.455 15.65ZM115.185 170.31C114.525 173.32 113.88 176.175 110.755 179.61L110.385 180H113.705C116.005 177.065 116.8 174.465 117.38 171.96L115.285 169.865C115.25 170.015 115.22 170.165 115.185 170.31ZM124.08 146.725C125.7 146.37 127.345 146.005 129.08 145.275C128.83 144.45 128.62 143.63 128.44 142.825C126.775 143.575 125.18 143.925 123.54 144.285C120.09 145.045 116.525 145.825 112.205 150.145C109.645 152.705 108.33 155 107.525 157.165L109.5 159.14C110.18 156.885 111.305 154.58 113.975 151.915C117.78 148.11 120.84 147.44 124.08 146.725ZM133.03 152.975C132.815 153.025 132.595 153.07 132.38 153.12C128.93 153.875 125.365 154.66 121.045 158.98C118.485 161.54 117.17 163.835 116.365 166L118.34 167.975C119.02 165.72 120.145 163.415 122.815 160.75C126.615 156.95 129.675 156.275 132.915 155.565C133.605 155.415 134.3 155.26 135.005 155.08L134.19 154.27C133.78 153.85 133.395 153.42 133.03 152.975ZM91.065 176.765C90.425 176.905 89.78 177.05 89.13 177.21L91.21 179.29L91.6 179.2C94.565 178.55 97.615 177.87 101.155 174.955L99.375 173.175C96.37 175.59 93.78 176.17 91.065 176.765ZM90.545 164.35C87.54 166.755 84.95 167.335 82.23 167.93C81.59 168.07 80.945 168.21 80.295 168.375L82.375 170.455C82.505 170.425 82.635 170.395 82.765 170.37C85.73 169.72 88.78 169.04 92.32 166.125L90.545 164.35ZM106.355 161.475C105.695 164.485 105.06 167.34 101.93 170.78L103.7 172.55C106.935 169.035 107.88 166.015 108.55 163.125L106.455 161.03C106.42 161.18 106.385 161.33 106.355 161.475ZM155.66 105.205L151.065 100.61L141.72 109.95L146.315 114.545L155.66 105.205ZM129.585 122.085L134.18 126.68L143.485 117.375L138.89 112.78L129.585 122.085ZM175.405 76.27L166.065 85.61L170.66 90.205L180 80.865L175.405 76.27ZM166.17 150.62C167.13 151.58 167.655 152.85 167.655 154.2C167.655 155.55 167.13 156.82 166.175 157.775L161.96 161.99L161.915 162.035L157.67 166.28C157.202 166.751 156.644 167.124 156.031 167.378C155.417 167.632 154.759 167.762 154.095 167.76C152.745 167.76 151.475 167.235 150.52 166.28L136.315 152.135C130.655 146.475 130.505 136.26 130.58 133.4L100.64 103.46C99.075 105.115 97.5 106.765 95.89 108.405C95 109.315 94.08 110.19 93.125 111.025C92.17 111.86 91.19 112.67 90.175 113.435C86.41 116.275 77.94 122.83 65.885 131.5C53.835 140.17 38.2 150.95 20.11 162.24C19.345 162.715 18.525 162.515 18.01 162C17.495 161.485 17.29 160.66 17.77 159.9C29.06 141.81 39.84 126.175 48.51 114.125C57.18 102.075 63.735 93.605 66.575 89.84C67.34 88.825 68.145 87.84 68.985 86.89C69.825 85.94 70.7 85.015 71.605 84.125C88.37 67.7 105.965 53.56 121.445 42.28C136.925 31 150.295 22.58 158.61 17.595C159.85 16.85 161.175 17.185 162.005 18.015C162.835 18.845 163.165 20.17 162.425 21.41C157.44 29.725 149.02 43.095 137.74 58.575C128.215 71.65 116.64 86.23 103.375 100.55L133.575 130.75C136.825 130.7 146.53 131.04 151.975 136.485L166.17 150.62ZM103.45 92.685C109.105 85.795 110.81 79.035 105.99 74.21C101.165 69.385 94.405 71.09 87.515 76.75C80.015 82.905 68.385 91.215 78.685 101.515C85.825 108.655 92.01 105.255 97.18 100.005L90 92.83L87.85 94.98C87.4743 95.3546 86.9655 95.5649 86.435 95.5649C85.9045 95.5649 85.3957 95.3546 85.02 94.98C84.6454 94.6043 84.4351 94.0955 84.4351 93.565C84.4351 93.0345 84.6454 92.5256 85.02 92.15L92.145 85.025C92.5207 84.6504 93.0295 84.4401 93.56 84.4401C94.0905 84.4401 94.5994 84.6504 94.975 85.025C95.3496 85.4007 95.5599 85.9095 95.5599 86.44C95.5599 86.9705 95.3496 87.4793 94.975 87.855L92.825 90.005L99.865 97.045C101.135 95.555 102.325 94.055 103.45 92.685ZM153.345 153.33C151.32 149.905 148.725 146.985 145.965 144.18C143.16 141.42 140.24 138.83 136.815 136.8C138.845 140.22 141.435 143.145 144.195 145.95C147 148.71 149.92 151.305 153.345 153.33ZM64.565 150.265C63.925 150.405 63.28 150.545 62.63 150.71L64.71 152.79C64.84 152.76 64.97 152.73 65.1 152.705C68.065 152.055 71.115 151.375 74.655 148.46L72.875 146.68C69.87 149.09 67.28 149.67 64.565 150.265ZM105.88 126.62C102.43 127.38 98.865 128.16 94.545 132.48C91.985 135.04 90.67 137.335 89.865 139.5L91.84 141.475C92.52 139.22 93.645 136.915 96.315 134.25C100.115 130.45 103.175 129.775 106.415 129.065C109.64 128.355 112.97 127.625 116.92 123.995L115.15 122.225C111.725 125.33 108.88 125.96 105.88 126.62ZM70.9 173.79C70.16 174.526 69.4685 175.309 68.83 176.135L70.615 177.92C71.175 177.16 71.845 176.375 72.665 175.555C74.795 173.425 76.695 172.275 78.525 171.555L76.62 169.65C74.84 170.485 72.955 171.735 70.9 173.79ZM88.685 143.81C88.025 146.82 87.39 149.675 84.26 153.115L86.03 154.885C89.265 151.37 90.21 148.35 90.88 145.46L88.785 143.365C88.75 143.515 88.72 143.66 88.685 143.81ZM105.145 143.08C108.945 139.28 112.005 138.605 115.245 137.895C118.47 137.185 121.8 136.455 125.75 132.825L123.98 131.055C120.555 134.165 117.71 134.795 114.705 135.455C111.255 136.21 107.69 136.995 103.375 141.315C100.815 143.875 99.5 146.17 98.695 148.335L100.67 150.31C101.355 148.05 102.48 145.745 105.145 143.08ZM67.785 160.82C66 161.65 64.12 162.9 62.06 164.96C61.32 165.696 60.6285 166.479 59.99 167.305L61.775 169.09C62.335 168.33 63.005 167.545 63.825 166.725C65.955 164.595 67.855 163.445 69.685 162.725L67.785 160.82ZM97.52 152.645C96.86 155.655 96.225 158.51 93.095 161.95L94.865 163.72C98.1 160.205 99.045 157.185 99.715 154.295L97.62 152.2C97.585 152.345 97.55 152.495 97.52 152.645ZM97.045 117.785C93.595 118.54 90.03 119.325 85.71 123.645C83.15 126.205 81.835 128.5 81.03 130.665L83.005 132.64C83.685 130.385 84.81 128.08 87.48 125.415C91.28 121.615 94.34 120.94 97.58 120.23C100.805 119.52 104.135 118.79 108.085 115.16L106.315 113.39C102.895 116.495 100.045 117.125 97.045 117.785ZM58.955 151.985C57.17 152.815 55.285 154.065 53.23 156.125C52.49 156.861 51.7985 157.644 51.16 158.47L52.945 160.255C53.505 159.495 54.175 158.71 54.995 157.89C57.125 155.76 59.025 154.61 60.855 153.89L58.955 151.985ZM71.46 159.545L73.54 161.625C73.67 161.595 73.8 161.565 73.93 161.54C76.895 160.89 79.945 160.21 83.485 157.295L81.705 155.515C78.7 157.92 76.11 158.5 73.39 159.095C72.755 159.24 72.115 159.38 71.46 159.545ZM79.85 134.975C79.19 137.985 78.555 140.84 75.42 144.28L77.19 146.05C80.425 142.535 81.37 139.515 82.04 136.625L79.945 134.53C79.915 134.68 79.885 134.83 79.85 134.975Z" fill="#FFD166"/>
</svg>
