<svg width="180" height="180" viewBox="0 0 180 180" fill="none" xmlns="http://www.w3.org/2000/svg">
<path d="M160.69 17.9499L92 76.5549V46.2449L94.62 39.6949C98.685 29.5349 99.93 15.8549 97.65 6.42486C97.255 4.78486 96.1 2.18987 95.335 0.969867C94.84 0.179867 93.885 -0.175133 92.96 0.0948669C91.045 0.644867 83.5 8.13987 83.5 14.9999V24.0649C83.5 29.7899 84.415 35.4449 86.23 40.8749L88 46.1899V80.0249C87.085 80.8299 86.18 81.6399 85.27 82.4549L77.805 74.9899L85.5 67.2899V63.7549L76.04 73.2149L68.285 65.4599L85.5 48.2449V46.5849L85.03 45.1749L66.515 63.6899L58.76 55.9349L81.715 32.9799C81.545 31.9399 81.42 30.8999 81.31 29.8499L56.995 54.1649L49.24 46.4099L81.01 14.6399C81.095 11.7699 82.23 8.82487 83.795 6.19987L46.415 43.5799L19.415 16.5799L16.585 19.4099L43.585 46.4099L0 89.9999L2.83 92.8299L46.415 49.2449L54.17 56.9999L21.17 89.9999L22.94 91.7699L55.94 58.7699L63.695 66.5249L40.21 89.9999L41.98 91.7699L65.46 68.2899L73.215 76.0449L59.255 89.9999L61.025 91.7699L74.98 77.8149L82.31 85.1449C75.9348 90.9926 69.7757 97.0717 63.845 103.37C55.0375 112.729 46.7437 122.558 39 132.815L17.915 160.745C17.58 161.19 17.695 161.695 18.005 162.005C18.315 162.315 18.82 162.43 19.265 162.095L47.195 141.01C57.4526 133.267 67.2821 124.974 76.64 116.165C80.515 112.52 84.305 108.78 88.01 104.96V133.82L86.235 139.135C84.4275 144.555 83.5073 150.231 83.51 155.945V165.01C83.51 171.865 91.055 179.365 92.97 179.915C93.175 179.975 93.385 180.005 93.585 180.005C94.295 180.005 94.96 179.655 95.345 179.04C96.11 177.82 97.265 175.225 97.66 173.58C99.94 164.15 98.695 150.465 94.63 140.31L92.01 133.76V100.77C92.97 99.7499 93.92 98.7249 94.865 97.6949L102.195 105.025L94.51 112.71V116.245L103.96 106.795L111.715 114.55L94.51 131.755V133.28L95.085 134.715L113.485 116.315L121.24 124.07L99.14 146.165C99.385 147.11 99.605 148.07 99.805 149.035L123.005 125.835L130.76 133.59L101.27 163.075C101.27 165.13 101.165 167.135 100.95 169.05L133.585 136.415L160.585 163.415L163.415 160.585L136.415 133.585L180 90.0049L177.17 87.1749L133.585 130.76L125.83 123.005L158.83 90.0049L157.06 88.2349L124.06 121.235L116.305 113.48L139.785 89.9999L138.015 88.2299L114.535 111.71L106.78 103.955L120.735 89.9999L118.965 88.2299L105.01 102.185L97.545 94.7199C99.455 92.5949 101.34 90.4449 103.2 88.2749L162.05 19.3099C162.435 18.8599 162.32 18.3249 162 17.9999C161.675 17.6799 161.145 17.5649 160.69 17.9499ZM104.19 77.7699C104.315 78.6449 104.43 80.1949 104.065 81.9849C103.695 83.7799 102.82 85.8399 101.02 87.6799L88.585 100.395C86.2 102.78 82.43 102.875 79.78 100.23C77.13 97.5849 77.23 93.8099 79.615 91.4249L92.33 78.9899C94.17 77.1899 96.23 76.3149 98.025 75.9449C99.82 75.5749 101.37 75.6899 102.24 75.8199C102.745 75.8949 103.195 76.1349 103.535 76.4799C103.875 76.8149 104.115 77.2649 104.19 77.7699Z" fill="#FFD166"/>
</svg>
