<svg width="180" height="180" viewBox="0 0 180 180" fill="none" xmlns="http://www.w3.org/2000/svg">
<path d="M26.225 70.27C26.675 70.27 27.125 70.245 27.57 70.21L1.77 96.01L0 94.245L24.11 70.135C24.805 70.22 25.51 70.27 26.225 70.27ZM18.73 68.5C17.965 68.115 17.23 67.67 16.525 67.17L0 83.695L1.77 85.465L18.73 68.5ZM104.795 0L0 104.795L2.83 107.625L107.62 2.83L104.795 0ZM93.86 51.535L100.93 44.465L99.16 42.695L92.09 49.765L93.86 51.535ZM69.165 76.235L76.235 69.165L74.465 67.395L67.395 74.465L69.165 76.235ZM178.23 94.54L161.27 111.5C162.035 111.885 162.77 112.33 163.475 112.83L180 96.305L178.23 94.54ZM56.815 88.585L63.885 81.515L62.115 79.745L55.045 86.815L56.815 88.585ZM152.435 109.785C152.88 109.75 153.33 109.725 153.78 109.725C154.49 109.725 155.195 109.775 155.89 109.86L180 85.755L178.23 83.985L152.435 109.785ZM168.97 149.595C169.095 150 168.99 150.44 168.695 150.745L162.68 156.87C162.19 157.37 161.385 157.375 160.885 156.885C160.695 156.699 160.569 156.458 160.524 156.195C160.479 155.933 160.518 155.664 160.635 155.425L161.84 152.96L153.63 148.365L140.795 161.2L133.5 157.675C133.52 157.425 133.54 157.175 133.54 156.915C133.54 151.27 128.96 146.69 123.315 146.69C117.67 146.69 113.09 151.27 113.09 156.915C113.09 162.56 117.67 167.14 123.315 167.14C126.92 167.14 130.08 165.27 131.895 162.45L122.77 158.04L123.86 155.79L143.155 165.115C143.87 165.47 144.365 166.14 144.49 166.915C144.615 167.69 144.36 168.48 143.805 169.035L140.4 172.44C140.107 172.735 139.743 172.95 139.342 173.063C138.942 173.177 138.52 173.186 138.115 173.09C137.709 172.997 137.335 172.801 137.027 172.521C136.72 172.24 136.49 171.885 136.36 171.49L135.31 168.365L137.68 167.57L138.7 170.605L141.985 167.325L135.52 164.2C133.035 168.35 128.505 171.135 123.315 171.135C115.46 171.135 109.09 164.765 109.09 156.91C109.09 149.055 115.46 142.685 123.315 142.685C130.415 142.685 136.3 147.885 137.365 154.685L140.285 140.89L134.95 137.905L136.17 135.725L148.91 142.85L152.56 126.175L155 126.71L151.19 144.125L162.955 150.705C163.371 149.947 164.016 149.339 164.799 148.969C165.581 148.599 166.46 148.486 167.31 148.645L168.095 148.795C168.505 148.89 168.845 149.19 168.97 149.595ZM151.36 147.1L142.565 142.18L138.885 159.575L151.36 147.1ZM155.41 136.535L154.505 140.66C162.02 140.28 168 134.065 168 126.455C168 118.6 161.63 112.23 153.775 112.23C145.92 112.23 139.55 118.6 139.55 126.455C139.55 131.93 142.645 136.68 147.18 139.055L148.08 134.945C145.35 133.11 143.55 129.99 143.55 126.455C143.55 120.81 148.13 116.23 153.775 116.23C159.42 116.23 164 120.81 164 126.455C164 131.545 160.28 135.755 155.41 136.535ZM106.21 39.19L113.28 32.12L111.51 30.35L104.44 37.42L106.21 39.19ZM125.63 19.77L123.86 18L116.79 25.07L118.56 26.84L125.63 19.77ZM81.515 63.885L88.585 56.815L86.815 55.045L79.745 62.115L81.515 63.885ZM105.53 112.605L112.6 105.535L110.83 103.765L103.76 110.835L105.53 112.605ZM54.37 160.23L56.14 162L63.21 154.93L61.44 153.16L54.37 160.23ZM93.18 124.955L100.25 117.885L98.48 116.115L91.41 123.185L93.18 124.955ZM80.835 137.3L87.905 130.23L86.135 128.46L79.065 135.53L80.835 137.3ZM73.79 140.81L66.72 147.88L68.49 149.65L75.56 142.58L73.79 140.81ZM177.17 72.38L72.38 177.17L75.21 180L180 75.205L177.17 72.38ZM44.465 100.93L51.535 93.86L49.765 92.09L42.695 99.16L44.465 100.93ZM160.585 16.585L16.585 160.585L19.415 163.415L163.415 19.415L160.585 16.585ZM19.77 125.63L26.84 118.56L25.07 116.79L18 123.86L19.77 125.63ZM117.88 100.255L124.95 93.185L123.18 91.415L116.11 98.485L117.88 100.255ZM32.12 113.28L39.19 106.21L37.42 104.44L30.35 111.51L32.12 113.28ZM130.23 87.905L137.3 80.835L135.53 79.065L128.46 86.135L130.23 87.905ZM154.925 63.21L161.995 56.14L160.225 54.37L153.155 61.44L154.925 63.21ZM142.575 75.555L149.645 68.485L147.875 66.715L140.805 73.785L142.575 75.555ZM40.45 53.545C40.45 48.07 37.355 43.32 32.82 40.945L31.92 45.055C34.65 46.89 36.45 50.01 36.45 53.545C36.45 59.19 31.87 63.77 26.225 63.77C20.58 63.77 16 59.19 16 53.545C16 48.455 19.725 44.245 24.595 43.46L25.5 39.335C17.975 39.72 12 45.935 12 53.545C12 61.4 18.37 67.77 26.225 67.77C34.08 67.77 40.45 61.4 40.45 53.545ZM11.03 30.405C10.9685 30.2063 10.9616 29.9947 11.01 29.7923C11.0584 29.59 11.1603 29.4044 11.305 29.255L17.32 23.13C17.81 22.63 18.615 22.625 19.115 23.115C19.505 23.5 19.605 24.085 19.365 24.575L18.16 27.04L26.37 31.635L39.205 18.8L46.5 22.325C46.48 22.575 46.46 22.825 46.46 23.085C46.46 28.73 51.04 33.31 56.685 33.31C62.33 33.31 66.91 28.73 66.91 23.085C66.91 17.44 62.33 12.86 56.685 12.86C53.08 12.86 49.92 14.73 48.105 17.55L57.23 21.96L56.14 24.21L36.845 14.885C36.4952 14.713 36.1916 14.4599 35.9594 14.1468C35.7272 13.8337 35.5731 13.4697 35.51 13.085C35.385 12.31 35.64 11.52 36.195 10.965L39.6 7.56C40.2 6.96 41.055 6.715 41.885 6.91C42.715 7.105 43.37 7.7 43.64 8.51L44.69 11.635L42.32 12.43L41.3 9.395L38.015 12.675L44.48 15.8C46.965 11.65 51.495 8.865 56.685 8.865C64.54 8.865 70.91 15.235 70.91 23.09C70.91 30.945 64.54 37.315 56.685 37.315C49.585 37.315 43.7 32.115 42.635 25.315L39.715 39.11L45.05 42.095L43.83 44.275L31.09 37.15L27.44 53.825L25 53.29L28.81 35.875L17.045 29.295C16.6288 30.0535 15.9836 30.6611 15.2015 31.0311C14.4194 31.401 13.5404 31.5144 12.69 31.355L11.905 31.205C11.495 31.11 11.155 30.81 11.03 30.405ZM28.64 32.9L37.435 37.82L41.115 20.425L28.64 32.9Z" fill="#FFD166"/>
</svg>
