<svg width="180" height="180" viewBox="0 0 180 180" fill="none" xmlns="http://www.w3.org/2000/svg">
<path d="M170.5 70.245C172.825 68.935 175.23 67.585 180 67.585V70.085C175.885 70.085 173.865 71.22 171.73 72.425C169.405 73.735 167 75.085 162.23 75.085C157.46 75.085 155.055 73.73 152.73 72.425C150.59 71.22 148.57 70.085 144.455 70.085C140.34 70.085 138.32 71.22 136.18 72.425C133.855 73.735 131.45 75.085 126.68 75.085C121.91 75.085 119.505 73.73 117.18 72.425C116.48 72.03 115.795 71.65 115.05 71.31L116.925 69.435C117.44 69.7 117.925 69.975 118.41 70.245C120.55 71.45 122.57 72.585 126.685 72.585C130.8 72.585 132.82 71.45 134.96 70.245C137.285 68.935 139.69 67.585 144.46 67.585C149.23 67.585 151.635 68.94 153.96 70.245C156.1 71.45 158.12 72.585 162.235 72.585C166.345 72.585 168.365 71.45 170.5 70.245ZM162.23 62.405C158.115 62.405 156.095 61.27 153.955 60.065C151.63 58.755 149.225 57.405 144.455 57.405C139.685 57.405 137.28 58.76 134.955 60.065C132.815 61.27 130.795 62.405 126.68 62.405C125.725 62.405 124.88 62.345 124.125 62.235L122 64.36C123.285 64.695 124.8 64.91 126.68 64.91C131.45 64.91 133.855 63.555 136.18 62.25C138.32 61.045 140.34 59.91 144.455 59.91C148.57 59.91 150.59 61.045 152.73 62.25C155.055 63.56 157.46 64.91 162.23 64.91C167 64.91 169.405 63.555 171.73 62.25C173.87 61.045 175.885 59.91 180 59.91V57.41C175.23 57.41 172.825 58.765 170.5 60.07C168.365 61.27 166.345 62.405 162.23 62.405ZM170.5 39.705C168.36 40.91 166.345 42.045 162.23 42.045C158.115 42.045 156.095 40.91 153.955 39.705C152.48 38.875 150.97 38.03 148.845 37.52L146.69 39.675C149.38 40.005 151.02 40.92 152.73 41.885C155.055 43.195 157.46 44.545 162.23 44.545C167 44.545 169.405 43.19 171.73 41.885C173.87 40.68 175.885 39.545 180 39.545V37.045C175.23 37.045 172.825 38.395 170.5 39.705ZM162.23 52.225C158.115 52.225 156.095 51.09 153.955 49.885C151.63 48.575 149.225 47.225 144.455 47.225C141.635 47.225 139.645 47.7 138.005 48.355L132.545 53.815C133.94 53.32 135.07 52.69 136.18 52.065C138.32 50.86 140.34 49.725 144.455 49.725C148.57 49.725 150.59 50.86 152.73 52.065C155.055 53.375 157.46 54.725 162.23 54.725C167 54.725 169.405 53.37 171.73 52.065C173.87 50.86 175.885 49.725 180 49.725V47.225C175.23 47.225 172.825 48.58 170.5 49.885C168.365 51.09 166.345 52.225 162.23 52.225ZM121.56 7.415L121.55 22H118.05C111.415 22 105.72 24.47 101.59 29.14C96.7 34.665 94.22 42.92 94.22 53.675V68.06H105.575L103.075 70.56H94.22V79.415L91.72 81.915V53.675C91.72 42.29 94.41 33.48 99.72 27.48C102.73 24.075 106.48 21.725 110.76 20.495H46.41C70.255 25.235 88.285 46.32 88.285 71.54V85.35L85.785 87.85V71.54C85.785 71.21 85.78 70.885 85.775 70.56H59.92C70.66 72.955 78.395 79.67 83.02 90.62L81.1 92.54C75.69 78.945 65.355 72.06 50.32 72.06H42.14L36.495 64.35H0V60.35H80.755V68.06H85.655C83.86 42.36 62.385 22 36.235 22H0V18H65.03L52.725 5.645C51.765 4.68 51.49 3.3 52.015 2.04C52.535 0.780001 53.71 0 55.07 0H114.14C118.23 0 121.56 3.325 121.56 7.415ZM47.945 64.35H39.58L42.3 68.06H45.23L47.945 64.35ZM73.28 64.35H51.045L48.33 68.06H70.565L73.28 64.35ZM78.255 64.35H76.375L73.66 68.06H78.255V64.35ZM89.86 9H104.06V2.5H89.86V9ZM70.665 11.5H62.09L68.565 18H70.67V11.5H70.665ZM70.665 2.5H55.075C54.59 2.5 54.39 2.85 54.33 3C54.27 3.15 54.16 3.535 54.505 3.88L59.595 9H70.66V2.5H70.665ZM87.36 11.5H73.16V18H87.36V11.5ZM87.36 2.5H73.16V9H87.36V2.5ZM89.86 18H104.06V11.5H89.86V18ZM119.055 11.5H106.56V18H119.05L119.055 11.5ZM119.06 7.415C119.06 4.705 116.855 2.5 114.145 2.5H106.56V9H119.06V7.415ZM17.77 107.415C21.885 107.415 23.905 108.55 26.045 109.755C28.37 111.065 30.775 112.415 35.545 112.415C40.315 112.415 42.72 111.06 45.045 109.755C47.185 108.55 49.205 107.415 53.32 107.415C57.435 107.415 59.455 108.55 61.595 109.755C62.08 110.025 62.565 110.3 63.08 110.565L64.955 108.69C64.21 108.35 63.525 107.965 62.825 107.575C60.5 106.265 58.095 104.915 53.325 104.915C48.555 104.915 46.15 106.27 43.825 107.575C41.685 108.78 39.665 109.915 35.55 109.915C31.435 109.915 29.415 108.78 27.275 107.575C24.95 106.265 22.545 104.915 17.775 104.915C13.005 104.915 10.6 106.27 8.275 107.575C6.135 108.78 4.12 109.915 0.00500107 109.915V112.415C4.775 112.415 7.18 111.06 9.505 109.755C11.635 108.55 13.655 107.415 17.77 107.415ZM17.77 117.595C21.885 117.595 23.905 118.73 26.045 119.935C28.37 121.245 30.775 122.595 35.545 122.595C40.315 122.595 42.72 121.24 45.045 119.935C47.185 118.73 49.205 117.595 53.32 117.595C54.275 117.595 55.12 117.655 55.875 117.765L58 115.64C56.715 115.305 55.2 115.09 53.32 115.09C48.55 115.09 46.145 116.445 43.82 117.75C41.68 118.955 39.66 120.09 35.545 120.09C31.43 120.09 29.41 118.955 27.27 117.75C24.945 116.44 22.54 115.09 17.77 115.09C13 115.09 10.595 116.445 8.27 117.75C6.13 118.955 4.115 120.09 0 120.09V122.59C4.77 122.59 7.175 121.235 9.5 119.93C11.635 118.73 13.655 117.595 17.77 117.595ZM17.77 127.775C21.885 127.775 23.905 128.91 26.045 130.115C28.37 131.425 30.775 132.775 35.545 132.775C38.365 132.775 40.355 132.3 41.995 131.645L47.455 126.185C46.06 126.68 44.93 127.31 43.82 127.935C41.68 129.14 39.66 130.275 35.545 130.275C31.43 130.275 29.41 129.14 27.27 127.935C24.945 126.625 22.54 125.275 17.77 125.275C13 125.275 10.595 126.63 8.27 127.935C6.13 129.14 4.115 130.275 0 130.275V132.775C4.77 132.775 7.175 131.42 9.5 130.115C11.635 128.91 13.655 127.775 17.77 127.775ZM26.045 140.295C27.52 141.125 29.03 141.97 31.155 142.48L33.31 140.325C30.62 139.995 28.98 139.08 27.27 138.115C24.945 136.805 22.54 135.455 17.77 135.455C13 135.455 10.595 136.81 8.27 138.115C6.13 139.32 4.115 140.455 0 140.455V142.955C4.77 142.955 7.175 141.6 9.5 140.295C11.64 139.09 13.655 137.955 17.77 137.955C21.885 137.955 23.905 139.095 26.045 140.295ZM99.245 111.94H94.345C96.14 137.64 117.615 158 143.765 158H180V162H114.97L127.275 174.355C128.235 175.32 128.51 176.7 127.985 177.96C127.465 179.22 126.29 180 124.93 180H65.855C61.765 180 58.44 176.675 58.44 172.585L58.45 158H61.95C68.585 158 74.28 155.53 78.41 150.86C83.3 145.335 85.78 137.08 85.78 126.325V111.94H74.425L76.925 109.44H85.78V100.585L88.28 98.085V126.325C88.28 137.71 85.59 146.52 80.28 152.52C77.27 155.925 73.52 158.275 69.24 159.505H133.59C109.745 154.765 91.715 133.68 91.715 108.46V94.65L94.215 92.15V108.46C94.215 108.79 94.22 109.115 94.225 109.44H120.08C109.34 107.045 101.6 100.33 96.98 89.38L98.9 87.46C104.31 101.055 114.645 107.94 129.68 107.94H137.86L143.505 115.65H180V119.65H99.245V111.94ZM60.945 168.5H73.44V162H60.95L60.945 168.5ZM65.855 177.5H73.44V171H60.945V172.585C60.94 175.295 63.145 177.5 65.855 177.5ZM90.14 171H75.94V177.5H90.14V171ZM90.14 162H75.94V168.5H90.14V162ZM106.835 171H92.635V177.5H106.835V171ZM106.835 162H92.635V168.5H106.835V162ZM120.405 171H109.34V177.5H124.93C125.415 177.5 125.615 177.15 125.675 177C125.735 176.85 125.845 176.465 125.5 176.12L120.405 171ZM111.44 162H109.335V168.5H117.91L111.44 162ZM132.055 115.65H140.42L137.705 111.94H134.775L132.055 115.65ZM106.72 115.65H128.955L131.67 111.94H109.435L106.72 115.65ZM101.745 115.65H103.625L106.34 111.94H101.745V115.65ZM163.415 19.415L160.585 16.585L16.585 160.585L19.415 163.415L163.415 19.415Z" fill="#FFD166"/>
</svg>
