<svg width="180" height="180" viewBox="0 0 180 180" fill="none" xmlns="http://www.w3.org/2000/svg">
<path d="M111.675 68.325C111.2 67.85 110.705 67.4 110.195 66.98L132.77 44.405L135.6 47.235L113.025 69.81C112.6 69.295 112.15 68.8 111.675 68.325ZM5.49 8.355C5.49 4.315 6.53 0 9.455 0H170.545C173.47 0 174.51 4.315 174.51 8.355C174.51 12.395 173.47 16.71 170.545 16.71H166.12L153.185 29.645L169.735 46.195L166.905 49.025L134.59 16.71H45.405L13.09 49.025L10.26 46.195L26.81 29.645L13.875 16.71H9.45C6.53 16.705 5.49 12.39 5.49 8.355ZM39.75 16.705H19.535L29.64 26.81L39.75 16.705ZM160.465 16.705H140.25L150.36 26.81L160.465 16.705ZM7.99 8.355C7.99 12.155 9.03 14.21 9.455 14.21H170.545C170.97 14.21 172.01 12.16 172.01 8.355C172.01 4.55 170.97 2.5 170.545 2.5H9.455C9.03 2.5 7.99 4.55 7.99 8.355ZM180 52.41V36.75H163.83L167.83 40.75H176V52.41H176.75V127.595H176V139.255H167.83L163.83 143.255H180V127.595H179.25V52.41H180ZM41.73 23.915H138.265L156.08 41.73V138.265L138.265 156.08H41.73L23.915 138.265V41.73L41.73 23.915ZM38.75 38.75V141.25H141.25V38.75H38.75ZM12.17 139.25H4V127.59H3.25V52.41H4V40.75H12.17L16.17 36.75H0V52.41H0.75V127.595H0V143.255H16.17L12.17 139.25ZM69.805 113.025C69.295 112.6 68.8 112.155 68.325 111.68C67.85 111.205 67.4 110.705 66.98 110.195L44.405 132.77L47.235 135.6L69.805 113.025ZM174.51 171.645C174.51 175.685 173.47 180 170.545 180H9.455C6.53 180 5.49 175.685 5.49 171.645C5.49 167.605 6.53 163.29 9.455 163.29H13.88L26.815 150.355L10.265 133.805L13.095 130.975L45.41 163.29H134.595L166.91 130.975L169.74 133.805L153.19 150.355L166.125 163.29H170.55C173.47 163.295 174.51 167.61 174.51 171.645ZM140.25 163.295H160.465L150.36 153.19L140.25 163.295ZM19.535 163.295H39.75L29.64 153.19L19.535 163.295ZM172.01 171.645C172.01 167.845 170.97 165.79 170.545 165.79H9.455C9.03 165.79 7.99 167.84 7.99 171.645C7.99 175.45 9.03 177.5 9.455 177.5H170.545C170.97 177.5 172.01 175.45 172.01 171.645ZM83.35 115.405C91 115.405 97.575 110.82 100.495 104.255C99.245 104.485 97.96 104.61 96.64 104.61C96.355 104.61 96.07 104.6 95.785 104.59C93.165 108.69 88.57 111.415 83.34 111.415C75.185 111.415 68.58 104.805 68.58 96.655C68.58 91.425 71.3 86.835 75.405 84.21C75.395 83.925 75.385 83.645 75.385 83.355C75.385 82.04 75.51 80.755 75.74 79.505C69.175 82.425 64.595 89 64.595 96.65C64.595 107.005 72.995 115.405 83.35 115.405ZM98.065 95.53C99.45 95.37 100.765 94.98 101.97 94.395C100.945 85.835 94.155 79.05 85.595 78.03C85.0015 79.2593 84.6179 80.5791 84.46 81.935C91.725 82.475 97.52 88.27 98.065 95.53ZM77.885 83.35C77.885 72.99 86.285 64.595 96.64 64.595C106.995 64.595 115.395 72.995 115.395 83.35C115.395 93.71 106.995 102.105 96.64 102.105C86.285 102.105 77.885 93.71 77.885 83.35ZM81.875 83.355C81.875 91.51 88.485 98.115 96.635 98.115C104.79 98.115 111.395 91.505 111.395 83.355C111.395 75.205 104.785 68.595 96.635 68.595C88.485 68.59 81.875 75.2 81.875 83.355Z" fill="#FFD166"/>
</svg>
