<svg width="226" height="289" viewBox="0 0 226 289" fill="none" xmlns="http://www.w3.org/2000/svg">
<g clip-path="url(#clip0_204_48)">
<path d="M121.831 139.162C119.688 138.437 116.116 138.256 113.081 140.793C110.045 138.256 106.474 138.437 104.331 139.162C102.545 139.887 101.116 140.249 98.4379 140.249C101.116 145.685 106.652 149.49 113.081 149.49C119.509 149.49 125.045 145.685 127.724 140.249C125.045 140.249 123.616 139.706 121.831 139.162Z" fill="white"/>
<path d="M113.081 0C68.9735 0 33.0807 36.2401 33.0807 80.9966C33.0807 119.411 59.3307 151.484 94.6878 160C66.6521 144.779 55.2235 109.807 68.795 80.6342C70.9378 92.231 78.4378 102.559 89.5093 107.814C75.045 73.5674 85.7593 33.1597 115.581 10.872C109.688 31.1665 118.616 49.8301 138.081 63.9638C160.224 80.0906 161.116 113.069 141.652 130.827C149.331 129.015 156.652 124.666 162.009 117.961C158.616 135.357 147.902 151.121 131.474 160C166.831 151.665 193.081 119.411 193.081 80.9966C193.081 36.2401 157.188 0 113.081 0Z" fill="#E6B010"/>
<path d="M222.61 189.116V197.425C220.996 196.161 218.897 195.799 217.121 194.535C215.669 193.632 215.184 191.826 215.184 190.019V182.433H211.633V190.019C211.633 192.548 212.279 195.257 214.216 196.883C215.507 197.967 216.96 198.509 218.413 199.051C219.704 199.592 221.157 200.134 221.964 201.399C222.61 202.302 222.771 203.386 222.771 204.65V206.998H226.161V189.116H222.61ZM197.911 195.799C198.719 194.716 199.526 193.632 200.01 192.367C200.494 191.103 200.656 189.839 200.494 188.574C200.171 186.046 198.557 183.878 196.459 182.975C194.36 181.891 191.616 181.891 189.517 183.156C187.419 184.239 185.966 186.587 185.804 189.116C185.643 191.826 186.773 194.174 188.71 195.799L190.647 193.09C190.001 192.367 189.356 191.464 189.194 190.381C189.033 189.297 189.194 188.394 189.84 187.491C190.97 185.865 193.23 185.323 195.006 186.226C195.813 186.768 196.62 187.491 196.781 188.394C197.104 189.477 196.943 190.561 196.62 191.464C196.136 192.367 195.651 193.271 195.006 194.174C192.584 197.425 190.324 200.496 187.903 203.747C187.096 204.831 186.289 206.095 185.32 207.179H201.14V203.747H192.1L197.911 195.799ZM171.276 198.328C169.984 201.76 166.594 204.108 163.204 203.747C159.814 203.566 156.909 200.857 155.94 197.425C154.971 193.812 156.101 189.839 158.846 187.491C161.59 185.142 165.464 185.142 168.37 187.31C171.599 189.658 172.89 194.354 171.276 198.328ZM172.083 185.684C168.531 181.891 163.043 180.988 158.684 183.156C154.164 185.323 151.581 190.561 151.904 195.799C152.389 201.037 155.94 205.553 160.621 206.817C165.303 208.082 170.63 206.276 173.374 201.76C176.28 197.425 176.119 191.284 173.213 186.949C172.89 186.587 172.406 186.226 172.083 185.684ZM138.99 195.799C139.797 194.716 140.604 193.632 141.089 192.367C141.573 191.103 141.734 189.839 141.573 188.574C141.25 186.046 139.636 183.878 137.537 182.975C135.439 181.891 132.694 181.891 130.596 183.156C128.497 184.239 127.044 186.587 126.883 189.116C126.721 191.826 127.851 194.174 129.789 195.799L131.726 193.09C131.08 192.367 130.434 191.464 130.273 190.381C130.111 189.297 130.273 188.394 130.919 187.491C132.049 185.865 134.309 185.323 136.084 186.226C136.891 186.768 137.699 187.491 137.86 188.394C138.183 189.477 138.021 190.561 137.699 191.464C137.214 192.367 136.73 193.271 136.084 194.174C133.663 197.425 131.403 200.496 128.981 203.747L126.399 207.179H142.219V203.747H133.179L138.99 195.799ZM106.381 195.257C105.09 194.174 103.637 193.632 102.184 192.909C100.731 192.367 99.2786 191.826 98.1486 190.561C97.18 189.477 97.5029 187.671 98.31 186.587C99.2786 185.504 100.893 185.323 102.184 185.684C103.637 186.226 104.606 187.671 104.606 189.297H108.157C108.157 187.491 107.673 185.865 106.543 184.42C105.413 183.156 103.96 182.433 102.346 182.072C100.731 181.891 98.9557 182.072 97.5029 182.975C96.05 183.878 94.92 185.142 94.4357 186.768C93.9514 188.394 94.1129 190.381 94.7586 191.826C95.5657 193.451 97.0186 194.354 98.6329 195.077C100.247 195.799 102.184 196.341 103.799 197.425C104.444 197.967 104.929 198.509 105.09 199.231C105.251 199.954 105.251 200.857 104.929 201.579C104.121 203.386 102.023 203.927 100.409 203.566C98.6329 203.205 97.18 201.579 97.18 199.412H93.79C93.79 201.399 94.4357 203.205 95.7271 204.65C97.0186 206.095 98.7943 206.817 100.731 206.998C102.669 207.179 104.606 206.817 106.22 205.553C107.673 204.469 108.641 202.663 108.803 200.857C108.641 198.87 107.996 196.702 106.381 195.257ZM79.4229 188.032V206.998H82.9743V187.491C81.6829 187.491 80.5529 187.671 79.4229 188.032ZM79.4229 185.865C80.5529 185.504 81.6829 185.323 82.9743 185.323V182.433H79.4229V185.865ZM59.4057 186.046C61.6657 186.046 63.9257 187.31 64.0871 189.839C64.2486 191.103 63.9257 192.367 63.1186 193.271C62.3114 194.354 61.02 194.896 59.89 195.619C58.4371 196.341 57.1457 197.064 55.8543 198.328V186.046H59.4057ZM64.7329 197.786C64.41 197.606 63.9257 197.425 63.4414 197.244C64.5714 196.522 65.7014 195.799 66.5086 194.716C67.1543 193.632 67.6386 192.548 67.8 191.284C68.1229 188.574 67.3157 186.046 65.2171 184.42C62.4729 182.252 59.0829 182.614 55.8543 182.614H52.4643V207.179H56.0157V205.011C56.0157 203.386 56.8229 201.76 58.1143 201.037C59.4057 200.134 61.1814 200.134 62.4729 200.676C63.7643 201.399 64.7329 202.844 64.8943 204.289C65.0557 205.192 64.8943 206.276 64.8943 207.179H68.4457C68.4457 205.914 68.4457 204.469 68.2843 203.205C67.8 200.857 66.5086 198.87 64.7329 197.786ZM37.1286 197.786C35.03 195.438 31.9629 194.716 29.0571 195.257V191.284C29.0571 190.561 29.0571 189.839 29.2186 189.116C29.5414 187.671 30.51 186.587 31.8014 186.226C33.0929 185.684 34.5457 186.046 35.6757 186.949C36.8057 187.852 37.29 189.297 37.29 190.742V198.328C37.29 197.967 37.1286 197.786 37.1286 197.786ZM37.1286 183.156C34.0614 181.349 29.7029 181.891 27.4429 184.781C26.3129 186.226 25.6671 188.032 25.6671 189.839V206.998H29.0571V198.87C31.1557 198.509 33.4157 198.87 35.1914 200.134C36.8057 201.399 37.4514 203.205 37.4514 205.192V206.817H41.0029V190.381C40.8414 187.491 39.7114 184.601 37.1286 183.156ZM11.1386 192.909C10.3314 194.174 8.87857 195.077 7.58714 195.799C6.13429 196.522 4.68143 197.425 3.55143 198.509V186.226H6.94143C8.87857 186.226 10.8157 186.768 11.6229 188.936C11.9457 190.019 11.7843 191.645 11.1386 192.909ZM11.3 183.517C9.68571 182.614 7.74857 182.614 5.97286 182.614H0V207.179H3.55143C3.55143 205.734 3.39 204.289 4.03571 203.024C4.84286 200.857 6.94143 199.954 8.71714 199.051C10.6543 197.967 12.7529 197.064 14.0443 195.077C15.1743 193.271 15.4971 191.103 15.1743 188.936C14.8514 186.407 13.2371 184.42 11.3 183.517Z" fill="white"/>
<path d="M72.6429 267.142C82.0041 267.142 89.5929 258.651 89.5929 248.177C89.5929 237.702 82.0041 229.211 72.6429 229.211C63.2816 229.211 55.6929 237.702 55.6929 248.177C55.6929 258.651 63.2816 267.142 72.6429 267.142Z" stroke="#0081C8" stroke-width="10.2286" stroke-miterlimit="10"/>
<path d="M113.161 267.142C122.523 267.142 130.111 258.651 130.111 248.177C130.111 237.702 122.523 229.211 113.161 229.211C103.8 229.211 96.2115 237.702 96.2115 248.177C96.2115 258.651 103.8 267.142 113.161 267.142Z" stroke="black" stroke-width="10.2286" stroke-miterlimit="10"/>
<path d="M153.519 267.142C162.88 267.142 170.469 258.651 170.469 248.177C170.469 237.702 162.88 229.211 153.519 229.211C144.157 229.211 136.569 237.702 136.569 248.177C136.569 258.651 144.157 267.142 153.519 267.142Z" stroke="#EE334E" stroke-width="10.2286" stroke-miterlimit="10"/>
<path d="M92.66 286.469C102.021 286.469 109.61 277.978 109.61 267.503C109.61 257.029 102.021 248.538 92.66 248.538C83.2988 248.538 75.71 257.029 75.71 267.503C75.71 277.978 83.2988 286.469 92.66 286.469Z" stroke="#FCB131" stroke-width="10.2286" stroke-miterlimit="10"/>
<path d="M133.34 286.469C142.701 286.469 150.29 277.978 150.29 267.503C150.29 257.029 142.701 248.538 133.34 248.538C123.979 248.538 116.39 257.029 116.39 267.503C116.39 277.978 123.979 286.469 133.34 286.469Z" stroke="#00A651" stroke-width="10.2286" stroke-miterlimit="10"/>
</g>
<defs>
<clipPath id="clip0_204_48">
<rect width="226" height="289" fill="white"/>
</clipPath>
</defs>
</svg>
