<svg width="180" height="180" viewBox="0 0 180 180" fill="none" xmlns="http://www.w3.org/2000/svg">
<path d="M105.54 49.4L106.45 50.89C106.45 50.895 106.775 51.445 107.155 52.42L106.88 52.365C103.66 51.715 100.805 49.895 98.835 47.245L98.16 46.335C96.125 43.595 93.075 41.955 90 41.955C86.925 41.955 83.875 43.595 81.84 46.335L81.165 47.245C79.195 49.895 76.34 51.715 73.12 52.365L72.845 52.42C73.225 51.445 73.55 50.89 73.555 50.88L74.46 49.4C76.325 48.66 77.965 47.415 79.185 45.77L79.86 44.86C82.355 41.495 86.145 39.485 90 39.48C93.855 39.485 97.645 41.495 100.14 44.86L100.815 45.77C102.035 47.41 103.675 48.66 105.54 49.4ZM44.85 100.145L45.76 100.82C47.4 102.035 48.645 103.67 49.385 105.535L50.875 106.445C50.885 106.45 51.435 106.775 52.405 107.155L52.35 106.89C51.7 103.67 49.88 100.815 47.23 98.845L46.32 98.17C43.58 96.135 41.94 93.085 41.94 90.01C41.94 86.935 43.58 83.885 46.32 81.85L47.23 81.175C49.88 79.205 51.7 76.35 52.35 73.13L52.405 72.85C51.435 73.23 50.885 73.55 50.885 73.55L49.39 74.465C48.6455 76.3497 47.388 77.9883 45.76 79.195L44.85 79.87C41.485 82.365 39.475 86.155 39.47 90.01C39.475 93.86 41.485 97.65 44.85 100.145ZM79.185 134.245L79.86 135.155C82.355 138.52 86.145 140.53 90 140.535C93.85 140.53 97.64 138.52 100.14 135.155L100.815 134.245C102.035 132.605 103.67 131.355 105.535 130.62L106.45 129.125C106.455 129.115 106.78 128.565 107.155 127.6L106.885 127.655C103.665 128.305 100.81 130.125 98.84 132.775L98.165 133.685C96.13 136.425 93.08 138.065 90.005 138.065C86.93 138.065 83.88 136.425 81.845 133.685L81.17 132.775C79.2152 130.131 76.3483 128.306 73.125 127.655L72.855 127.6C73.23 128.565 73.55 129.11 73.555 129.115L74.475 130.62C76.3504 131.369 77.9809 132.624 79.185 134.245ZM135.15 79.865L134.24 79.19C132.611 77.9847 131.353 76.3457 130.61 74.46L129.13 73.555C129.12 73.55 128.565 73.225 127.595 72.845L127.65 73.125C128.3 76.345 130.12 79.2 132.775 81.17L133.685 81.845C136.425 83.88 138.065 86.93 138.065 90.005C138.06 93.08 136.425 96.13 133.685 98.165L132.775 98.84C130.131 100.796 128.305 103.662 127.65 106.885L127.595 107.15C128.56 106.77 129.11 106.45 129.115 106.45L130.615 105.535C131.355 103.675 132.6 102.04 134.24 100.82L135.15 100.145C138.515 97.65 140.525 93.86 140.53 90.005C140.525 86.155 138.51 82.365 135.15 79.865ZM79.49 114.515C80.94 114.81 82.23 115.63 83.12 116.83L83.525 117.375C85.115 119.515 87.535 120.795 90.005 120.8C92.47 120.8 94.89 119.52 96.48 117.375L96.885 116.83C97.775 115.63 99.065 114.81 100.515 114.515L106.17 113.37C106.28 113.35 106.385 113.32 106.495 113.29C106.21 112.584 105.896 111.891 105.555 111.21L105.45 110.995L100.03 112.09C97.98 112.505 96.16 113.66 94.91 115.35L94.505 115.895C93.375 117.415 91.695 118.32 90.01 118.325C88.32 118.325 86.64 117.415 85.51 115.895L85.105 115.35C83.8596 113.666 82.0333 112.504 79.98 112.09L74.565 110.995L74.455 111.21C74.1 111.91 73.785 112.6 73.505 113.285C73.615 113.31 73.725 113.34 73.835 113.365L79.49 114.515ZM114.505 100.52C114.8 99.07 115.62 97.78 116.82 96.89L117.365 96.485C119.505 94.895 120.785 92.475 120.79 90.005C120.79 87.54 119.505 85.12 117.365 83.53L116.82 83.125C115.62 82.235 114.8 80.945 114.505 79.495L113.36 73.84C113.34 73.73 113.305 73.62 113.28 73.51C112.585 73.795 111.89 74.1 111.215 74.445L110.99 74.56L112.085 79.98C112.5 82.03 113.655 83.85 115.345 85.105L115.89 85.51C117.41 86.635 118.315 88.32 118.32 90.005C118.32 91.695 117.41 93.375 115.89 94.505L115.345 94.91C113.663 96.1553 112.502 97.9792 112.085 100.03L110.995 105.435L111.215 105.55C111.91 105.905 112.6 106.215 113.285 106.495C113.31 106.39 113.34 106.285 113.36 106.175L114.505 100.52ZM69.005 105.44L67.915 100.035C67.5 97.985 66.34 96.165 64.655 94.915L64.11 94.51C62.59 93.385 61.685 91.7 61.68 90.015C61.68 88.325 62.59 86.645 64.11 85.52L64.655 85.115C66.345 83.86 67.5 82.045 67.915 79.99L69.01 74.57L68.785 74.455C68.09 74.1 67.4 73.79 66.72 73.51C66.695 73.62 66.66 73.735 66.64 73.845L65.495 79.5C65.2 80.95 64.38 82.24 63.18 83.13L62.635 83.535C60.495 85.125 59.215 87.545 59.21 90.01C59.21 92.475 60.49 94.895 62.635 96.485L63.18 96.89C64.38 97.78 65.2 99.07 65.495 100.52L66.64 106.175C66.66 106.28 66.69 106.385 66.715 106.485C67.415 106.2 68.11 105.895 68.785 105.545L69.005 105.44ZM100.51 65.505C99.06 65.21 97.77 64.39 96.88 63.19L96.475 62.645C94.885 60.505 92.465 59.225 90 59.22C87.535 59.22 85.115 60.5 83.525 62.645L83.12 63.19C82.23 64.39 80.94 65.21 79.49 65.505L73.835 66.65C73.73 66.67 73.625 66.7 73.52 66.725C73.805 67.42 74.11 68.11 74.455 68.785L74.57 69.015L79.98 67.92C82.03 67.505 83.85 66.35 85.105 64.66L85.51 64.115C86.635 62.595 88.32 61.69 90.005 61.685C91.695 61.685 93.375 62.595 94.505 64.115L94.91 64.66C96.1543 66.3429 97.9787 67.5045 100.03 67.92L105.44 69.015L105.56 68.785C105.915 68.095 106.225 67.405 106.5 66.725C106.39 66.7 106.285 66.67 106.175 66.645L100.51 65.505ZM170.715 72.535L169.075 71.32C164.985 68.285 162.18 63.88 161.18 58.92L158.65 46.405C158.275 46.865 157.875 47.315 157.445 47.74C157.16 48.025 156.87 48.3 156.57 48.565L158.76 59.405C159.885 64.965 163.025 69.895 167.605 73.295L169.245 74.51C174.43 78.36 177.53 84.15 177.535 89.995C177.53 95.845 174.43 101.635 169.245 105.485L167.605 106.7C163.025 110.1 159.885 115.03 158.76 120.59L156.57 131.43C156.87 131.695 157.16 131.97 157.445 132.255C157.87 132.68 158.275 133.125 158.65 133.585L161.18 121.075C162.18 116.115 164.985 111.71 169.075 108.675L170.715 107.46C176.525 103.15 179.995 96.62 180 89.99C179.995 83.375 176.52 76.845 170.715 72.535ZM47.745 22.555C48.03 22.84 48.305 23.13 48.57 23.43L59.41 21.24C64.97 20.115 69.9 16.975 73.3 12.395L74.515 10.755C78.365 5.57 84.155 2.47 90 2.465C95.85 2.47 101.64 5.57 105.49 10.755L106.705 12.395C110.105 16.975 115.035 20.115 120.595 21.24L131.44 23.43C131.705 23.13 131.98 22.84 132.265 22.555C132.69 22.13 133.135 21.725 133.595 21.35L121.085 18.82C116.125 17.82 111.72 15.015 108.685 10.925L107.47 9.285C103.155 3.475 96.625 0.005 90 0C83.375 0.005 76.845 3.475 72.535 9.285L71.32 10.925C68.285 15.015 63.88 17.82 58.92 18.82L46.405 21.35C46.865 21.725 47.315 22.125 47.745 22.555ZM21.35 133.595C21.73 133.135 22.125 132.685 22.555 132.255C22.84 131.97 23.13 131.695 23.43 131.43L21.24 120.59C20.115 115.03 16.975 110.1 12.395 106.7L10.755 105.485C5.57 101.635 2.47 95.845 2.465 90C2.47 84.15 5.57 78.36 10.755 74.51L12.395 73.295C16.975 69.895 20.115 64.965 21.24 59.405L23.43 48.56C23.13 48.295 22.84 48.02 22.555 47.735C22.13 47.31 21.725 46.865 21.35 46.4L18.82 58.91C17.82 63.87 15.015 68.275 10.925 71.31L9.285 72.525C3.48 76.845 0.005 83.375 0 90C0.005 96.625 3.48 103.155 9.285 107.465L10.925 108.68C15.015 111.715 17.82 116.12 18.82 121.08L21.35 133.595ZM132.26 157.445C131.975 157.16 131.7 156.87 131.435 156.57L120.595 158.76C115.035 159.885 110.105 163.025 106.705 167.605L105.49 169.245C101.64 174.43 95.85 177.53 90.005 177.535C84.155 177.53 78.365 174.43 74.515 169.245L73.3 167.605C69.9 163.025 64.97 159.885 59.41 158.76L48.565 156.57C48.3 156.87 48.025 157.16 47.74 157.445C47.315 157.87 46.87 158.275 46.405 158.65L58.915 161.18C63.875 162.18 68.28 164.985 71.315 169.075L72.53 170.715C76.84 176.525 83.37 179.995 90 180C96.625 179.995 103.155 176.525 107.465 170.715L108.68 169.075C111.715 164.985 116.12 162.18 121.08 161.18L133.595 158.65C133.135 158.27 132.685 157.875 132.26 157.445ZM160.265 90C160.26 84.76 157.52 79.6 152.93 76.2L151.655 75.255C148.53 72.935 146.385 69.57 145.62 65.78L143.58 55.68C143.014 56.1227 142.475 56.5985 141.965 57.105C141.79 57.28 141.63 57.465 141.465 57.645L143.205 66.265C144.095 70.655 146.575 74.55 150.19 77.235L151.465 78.18C155.43 81.12 157.795 85.54 157.8 90.005C157.795 94.465 155.43 98.885 151.465 101.83L150.19 102.775C146.575 105.46 144.095 109.355 143.205 113.745L141.465 122.36C141.63 122.54 141.79 122.725 141.965 122.9C142.475 123.41 143.015 123.885 143.58 124.33L145.62 114.24C146.385 110.45 148.53 107.085 151.655 104.765L152.93 103.82C157.52 100.4 160.26 95.24 160.265 90ZM104.75 28.345L103.805 27.07C100.4 22.485 95.24 19.745 90 19.74C84.76 19.745 79.6 22.485 76.2 27.07L75.255 28.345C72.935 31.47 69.57 33.615 65.78 34.38L55.685 36.42C56.125 36.985 56.6 37.525 57.11 38.035C57.285 38.21 57.47 38.37 57.65 38.54L66.265 36.8C70.655 35.915 74.55 33.435 77.23 29.815L78.175 28.54C81.115 24.575 85.54 22.21 90 22.205C94.46 22.21 98.88 24.575 101.825 28.54L102.77 29.815C105.455 33.43 109.35 35.91 113.735 36.8L122.35 38.54C122.53 38.37 122.715 38.21 122.89 38.035C123.4 37.525 123.875 36.985 124.315 36.42L114.22 34.38C110.435 33.615 107.07 31.47 104.75 28.345ZM27.07 103.805L28.345 104.75C31.47 107.07 33.615 110.435 34.38 114.225L36.42 124.32C36.985 123.88 37.53 123.4 38.04 122.89C38.215 122.715 38.375 122.53 38.54 122.355L36.8 113.74C35.91 109.35 33.43 105.455 29.815 102.775L28.54 101.83C24.575 98.89 22.21 94.47 22.205 90.01C22.21 85.55 24.575 81.125 28.54 78.185L29.815 77.24C33.43 74.555 35.91 70.66 36.8 66.27L38.54 57.65C38.375 57.47 38.215 57.285 38.04 57.11C37.53 56.6 36.99 56.125 36.425 55.68L34.385 65.78C33.62 69.57 31.475 72.935 28.35 75.255L27.075 76.2C22.49 79.605 19.745 84.765 19.745 90.005C19.74 95.24 22.48 100.4 27.07 103.805ZM75.25 151.66L76.195 152.935C79.6 157.52 84.76 160.26 90 160.265C95.24 160.26 100.4 157.52 103.8 152.935L104.745 151.66C107.065 148.535 110.43 146.39 114.22 145.625L124.32 143.585C123.88 143.015 123.4 142.475 122.89 141.965C122.715 141.79 122.535 141.635 122.355 141.465L113.735 143.21C109.345 144.095 105.45 146.575 102.77 150.195L101.825 151.47C98.885 155.435 94.46 157.8 90 157.805C85.54 157.8 81.12 155.435 78.175 151.47L77.23 150.195C74.545 146.58 70.65 144.1 66.265 143.21L57.645 141.47C57.465 141.635 57.285 141.795 57.11 141.97C56.6 142.48 56.12 143.02 55.68 143.59L65.78 145.63C69.565 146.39 72.93 148.535 75.25 151.66ZM131.43 47.56C132.53 47.78 133.62 48.02 134.7 48.255C141.155 49.665 147.25 50.995 152.855 48.095C153.845 47.585 154.805 46.865 155.71 45.995C159.63 42.07 160.985 36.555 159.77 31.53L157.23 31.835C158.185 35.42 157.56 39.34 155.36 42.49L155.355 42.485C154.9 41.04 153.745 40.135 152.265 39.515C150.785 38.895 148.98 38.555 147.22 38.235C145.82 37.98 144.575 37.325 143.605 36.39C142.665 35.42 142.015 34.175 141.76 32.775C141.44 31.015 141.1 29.21 140.48 27.73C139.86 26.25 138.955 25.1 137.515 24.64C139.71 23.105 142.28 22.34 144.855 22.34C145.97 22.34 147.08 22.485 148.165 22.77L148.47 20.23C147.285 19.945 146.065 19.8 144.855 19.8C140.93 19.8 137 21.3 134.005 24.295C131.999 26.294 130.498 28.7413 129.625 31.435C128.681 34.5855 126.968 37.4516 124.64 39.775C123.101 41.3174 121.346 42.6277 119.43 43.665L110.265 48.67C118.375 44.935 125.285 46.325 131.43 47.56ZM134.17 50.69C133.1 50.455 132.025 50.22 130.94 50.005C124.47 48.7 117.78 47.355 109.69 51.745L109.57 51.81C109.905 52.715 110.255 53.87 110.5 55.235C111.17 58.945 110.54 64.44 107.745 69.905C107.745 69.905 108.33 70.31 109.01 70.99C109.69 71.67 110.095 72.255 110.095 72.255C114.255 70.13 118.435 69.255 121.83 69.255C122.895 69.255 123.885 69.34 124.77 69.5C128.25 70.13 130.4 71.44 130.4 71.44L136.335 60.57C137.345 58.7 138.64 56.94 140.225 55.36C141.404 54.1783 142.728 53.1502 144.165 52.3C140.905 52.16 137.58 51.435 134.17 50.69ZM47.56 48.57C47.78 47.47 48.02 46.38 48.255 45.3C49.665 38.845 50.995 32.75 48.095 27.145C47.585 26.155 46.865 25.195 45.995 24.29C42.07 20.37 36.555 19.015 31.53 20.23L31.835 22.77C35.42 21.815 39.34 22.44 42.49 24.64L42.485 24.645C41.04 25.1 40.135 26.255 39.515 27.735C38.895 29.215 38.555 31.02 38.235 32.78C37.98 34.18 37.325 35.425 36.39 36.395C35.42 37.335 34.175 37.985 32.775 38.24C31.015 38.56 29.21 38.9 27.73 39.52C26.25 40.14 25.1 41.045 24.64 42.485C23.105 40.29 22.34 37.72 22.34 35.145C22.34 34.03 22.485 32.92 22.77 31.835L20.23 31.53C19.945 32.715 19.8 33.935 19.8 35.145C19.8 39.07 21.3 43 24.295 45.995C26.37 48.07 28.825 49.53 31.435 50.375C34.485 51.29 37.365 52.95 39.775 55.36C41.3174 56.8989 42.6277 58.654 43.665 60.57L48.67 69.735C44.935 61.625 46.325 54.715 47.56 48.57ZM50.69 45.83C50.455 46.9 50.22 47.975 50.005 49.06C48.7 55.53 47.355 62.22 51.745 70.31L51.81 70.43C52.715 70.095 53.87 69.745 55.235 69.5C58.945 68.83 64.44 69.46 69.905 72.255C69.905 72.255 70.31 71.67 70.99 70.99C71.67 70.31 72.255 69.905 72.255 69.905C70.13 65.745 69.255 61.565 69.255 58.17C69.255 57.105 69.34 56.115 69.5 55.23C70.13 51.75 71.44 49.6 71.44 49.6L60.57 43.665C58.6529 42.6294 56.8976 41.3189 55.36 39.775C54.1783 38.5956 53.1502 37.2718 52.3 35.835C52.16 39.1 51.44 42.42 50.69 45.83ZM48.57 132.44C47.47 132.22 46.38 131.98 45.3 131.745C38.845 130.335 32.75 129.005 27.145 131.905C26.155 132.415 25.195 133.135 24.29 134.005C20.37 137.93 19.015 143.445 20.23 148.47L22.77 148.165C21.815 144.58 22.44 140.66 24.64 137.51L24.645 137.515C25.1 138.96 26.255 139.865 27.735 140.485C29.215 141.105 31.02 141.445 32.78 141.765C34.18 142.02 35.425 142.675 36.395 143.61C37.335 144.58 37.985 145.825 38.24 147.225C38.56 148.985 38.9 150.79 39.52 152.27C40.14 153.75 41.045 154.9 42.485 155.36C40.29 156.895 37.72 157.66 35.145 157.66C34.03 157.66 32.92 157.515 31.835 157.23L31.53 159.77C32.715 160.055 33.935 160.2 35.145 160.2C39.07 160.2 43 158.7 45.995 155.705C48.07 153.63 49.53 151.175 50.375 148.565C51.29 145.515 52.95 142.635 55.36 140.225C56.8989 138.683 58.654 137.372 60.57 136.335L69.735 131.33C61.625 135.065 54.715 133.675 48.57 132.44ZM45.835 129.31C46.905 129.545 47.98 129.78 49.065 129.995C55.535 131.3 62.225 132.645 70.315 128.255L70.435 128.19C70.1 127.285 69.75 126.13 69.505 124.765C68.835 121.055 69.465 115.56 72.26 110.095C72.26 110.095 71.675 109.69 70.995 109.01C70.315 108.33 69.91 107.745 69.91 107.745C65.75 109.87 61.57 110.745 58.175 110.745C57.11 110.745 56.12 110.66 55.235 110.5C51.755 109.87 49.605 108.56 49.605 108.56L43.67 119.43C42.6344 121.347 41.3239 123.102 39.78 124.64C38.6006 125.822 37.2768 126.85 35.84 127.7C39.1 127.84 42.42 128.565 45.835 129.31ZM132.44 131.43C132.22 132.53 131.98 133.62 131.745 134.7C130.335 141.155 129.005 147.25 131.905 152.855C132.415 153.845 133.135 154.805 134.005 155.71C137.93 159.63 143.445 160.985 148.47 159.77L148.165 157.23C144.58 158.185 140.66 157.56 137.51 155.36L137.515 155.355C138.96 154.9 139.865 153.745 140.485 152.265C141.105 150.785 141.445 148.98 141.765 147.22C142.02 145.82 142.675 144.575 143.61 143.605C144.58 142.665 145.825 142.015 147.225 141.76C148.985 141.44 150.79 141.1 152.27 140.48C153.75 139.86 154.9 138.955 155.36 137.515C156.895 139.71 157.66 142.28 157.66 144.855C157.66 145.97 157.515 147.08 157.23 148.165L159.77 148.47C160.055 147.285 160.2 146.065 160.2 144.855C160.2 140.93 158.7 137 155.705 134.005C153.706 131.999 151.259 130.498 148.565 129.625C145.415 128.681 142.548 126.968 140.225 124.64C138.683 123.101 137.372 121.346 136.335 119.43L131.33 110.265C135.065 118.375 133.68 125.285 132.44 131.43ZM129.31 134.165C129.545 133.095 129.78 132.02 129.995 130.935C131.3 124.465 132.645 117.775 128.255 109.685L128.19 109.565C127.285 109.9 126.13 110.25 124.765 110.495C121.055 111.165 115.56 110.535 110.095 107.74C110.095 107.74 109.69 108.325 109.01 109.005C108.33 109.685 107.745 110.09 107.745 110.09C109.87 114.25 110.745 118.43 110.745 121.825C110.745 122.89 110.66 123.88 110.5 124.765C109.87 128.245 108.56 130.395 108.56 130.395L119.43 136.33C121.3 137.34 123.06 138.635 124.64 140.22C125.822 141.399 126.85 142.723 127.7 144.16C127.84 140.9 128.565 137.58 129.31 134.165Z" fill="#FFD166"/>
</svg>
